<?xml version="1.0" encoding="UTF-8"?> <svg xmlns="http://www.w3.org/2000/svg" xmlns:xlink="http://www.w3.org/1999/xlink" width="3996" height="2168" overflow="hidden"><defs><clipPath id="clip0"><rect x="87" y="151" width="3996" height="2168"></rect></clipPath><clipPath id="clip1"><rect x="238" y="711" width="61" height="76"></rect></clipPath><clipPath id="clip2"><rect x="238" y="711" width="61" height="76"></rect></clipPath><clipPath id="clip3"><rect x="238" y="711" width="61" height="76"></rect></clipPath><linearGradient x1="2230" y1="206" x2="2230" y2="2080" gradientUnits="userSpaceOnUse" spreadMethod="reflect" id="fill4"><stop offset="0" stop-color="#C4C4C4" stop-opacity="0.301961"></stop><stop offset="0.99" stop-color="#878787" stop-opacity="0.329412"></stop><stop offset="1" stop-color="#878787" stop-opacity="0.329412"></stop></linearGradient><clipPath id="clip5"><rect x="3261" y="1188" width="208" height="181"></rect></clipPath><clipPath id="clip6"><rect x="3261" y="1188" width="208" height="181"></rect></clipPath><clipPath id="clip7"><rect x="3261" y="1188" width="208" height="181"></rect></clipPath><clipPath id="clip8"><rect x="1826" y="1511" width="252" height="240"></rect></clipPath><clipPath id="clip9"><rect x="1826" y="1511" width="252" height="240"></rect></clipPath><clipPath id="clip10"><rect x="1826" y="1511" width="252" height="240"></rect></clipPath><clipPath id="clip11"><rect x="3693" y="1600" width="157" height="160"></rect></clipPath><clipPath id="clip12"><rect x="3693" y="1600" width="157" height="160"></rect></clipPath><clipPath id="clip13"><rect x="3693" y="1600" width="157" height="160"></rect></clipPath><clipPath id="clip14"><rect x="3294" y="1624" width="221" height="221"></rect></clipPath><clipPath id="clip15"><rect x="3294" y="1624" width="221" height="221"></rect></clipPath><clipPath id="clip16"><rect x="3294" y="1624" width="221" height="221"></rect></clipPath><linearGradient x1="3298.7" y1="1665.14" x2="3509.3" y2="1665.14" gradientUnits="userSpaceOnUse" spreadMethod="pad" id="fill17"><stop offset="0" stop-color="#F1E6CC" stop-opacity="0"></stop><stop offset="0.12" stop-color="#F1E6CC" stop-opacity="1"></stop><stop offset="1" stop-color="#F1E6CC" stop-opacity="1"></stop></linearGradient><clipPath id="clip18"><rect x="1868" y="992" width="88" height="111"></rect></clipPath><clipPath id="clip19"><rect x="1868" y="992" width="88" height="111"></rect></clipPath><clipPath id="clip20"><rect x="1868" y="992" width="88" height="111"></rect></clipPath><linearGradient x1="873.189" y1="237.5" x2="896.811" y2="237.5" gradientUnits="userSpaceOnUse" spreadMethod="reflect" id="stroke21"><stop offset="0" stop-color="#D4AB4E" stop-opacity="1"></stop><stop offset="0.12" stop-color="#D4AB4E" stop-opacity="1"></stop><stop offset="1" stop-color="#D4AB4E" stop-opacity="1"></stop></linearGradient><linearGradient x1="720.189" y1="237.5" x2="744.811" y2="237.5" gradientUnits="userSpaceOnUse" spreadMethod="reflect" id="stroke22"><stop offset="0" stop-color="#D4AB4E" stop-opacity="1"></stop><stop offset="0.12" stop-color="#D4AB4E" stop-opacity="1"></stop><stop offset="1" stop-color="#D4AB4E" stop-opacity="1"></stop></linearGradient><linearGradient x1="568.189" y1="236" x2="591.811" y2="236" gradientUnits="userSpaceOnUse" spreadMethod="reflect" id="stroke23"><stop offset="0" stop-color="#D4AB4E" stop-opacity="1"></stop><stop offset="0.12" stop-color="#D4AB4E" stop-opacity="1"></stop><stop offset="1" stop-color="#D4AB4E" stop-opacity="1"></stop></linearGradient><linearGradient x1="414.189" y1="236" x2="438.811" y2="236" gradientUnits="userSpaceOnUse" spreadMethod="reflect" id="stroke24"><stop offset="0" stop-color="#D4AB4E" stop-opacity="1"></stop><stop offset="0.12" stop-color="#D4AB4E" stop-opacity="1"></stop><stop offset="1" stop-color="#D4AB4E" stop-opacity="1"></stop></linearGradient><linearGradient x1="1020.19" y1="236" x2="1054.81" y2="236" gradientUnits="userSpaceOnUse" spreadMethod="reflect" id="stroke25"><stop offset="0" stop-color="#D4AB4E" stop-opacity="1"></stop><stop offset="0.12" stop-color="#D4AB4E" stop-opacity="1"></stop><stop offset="1" stop-color="#D4AB4E" stop-opacity="1"></stop></linearGradient><linearGradient x1="989.645" y1="285.997" x2="1086.35" y2="285.997" gradientUnits="userSpaceOnUse" spreadMethod="reflect" id="stroke26"><stop offset="0" stop-color="#D4AB4E" stop-opacity="1"></stop><stop offset="0.12" stop-color="#D4AB4E" stop-opacity="1"></stop><stop offset="1" stop-color="#D4AB4E" stop-opacity="1"></stop></linearGradient><linearGradient x1="238.189" y1="236" x2="273.812" y2="236" gradientUnits="userSpaceOnUse" spreadMethod="reflect" id="stroke27"><stop offset="0" stop-color="#D4AB4E" stop-opacity="1"></stop><stop offset="0.12" stop-color="#D4AB4E" stop-opacity="1"></stop><stop offset="1" stop-color="#D4AB4E" stop-opacity="1"></stop></linearGradient><linearGradient x1="207.645" y1="285.997" x2="304.354" y2="285.997" gradientUnits="userSpaceOnUse" spreadMethod="reflect" id="stroke28"><stop offset="0" stop-color="#D4AB4E" stop-opacity="1"></stop><stop offset="0.12" stop-color="#D4AB4E" stop-opacity="1"></stop><stop offset="1" stop-color="#D4AB4E" stop-opacity="1"></stop></linearGradient></defs><g clip-path="url(#clip0)" transform="translate(-87 -151)"><path d="M106 179.553C106 167.649 115.649 158 127.552 158L1207.45 158C1219.35 158 1229 167.649 1229 179.553L1229 995.448C1229 1007.35 1219.35 1017 1207.45 1017L127.552 1017C115.649 1017 106 1007.35 106 995.448Z" stroke="#CCCCCC" stroke-width="10.3125" stroke-linecap="butt" stroke-linejoin="miter" stroke-miterlimit="8" stroke-opacity="1" fill="#F5F5F5" fill-rule="evenodd" fill-opacity="1"></path><rect x="248" y="761" width="888" height="89.0001" fill="#F5F5F5" fill-opacity="1"></rect><rect x="651" y="761" width="72.9999" height="58.0001" fill="#F2F2F2" fill-opacity="1"></rect><text fill="#595959" fill-opacity="1" font-family="Arial,Arial_MSFontService,sans-serif" font-style="normal" font-variant="normal" font-weight="700" font-stretch="normal" font-size="37" text-anchor="start" direction="ltr" writing-mode="lr-tb" text-decoration="none" transform="matrix(1 0 0 1 670.344 795)">PI</text><path d="M729.5 783.5 1070.43 783.5" stroke="#B2B2B2" stroke-width="4.58333" stroke-linecap="butt" stroke-linejoin="miter" stroke-miterlimit="8" stroke-opacity="1" fill="none" fill-rule="evenodd"></path><path d="M319.5 783.5 647.251 783.5" stroke="#B2B2B2" stroke-width="4.58333" stroke-linecap="butt" stroke-linejoin="miter" stroke-miterlimit="8" stroke-opacity="1" fill="none" fill-rule="evenodd"></path><text fill="#595959" fill-opacity="1" font-family="Arial,Arial_MSFontService,sans-serif" font-style="normal" font-variant="normal" font-weight="700" font-stretch="normal" font-size="36" text-anchor="start" direction="ltr" writing-mode="lr-tb" text-decoration="none" transform="matrix(1 0 0 1 155.287 834)">PI Objectives</text><rect x="204" y="698" width="107" height="61.9999" fill="#F5F5F5" fill-opacity="1"></rect><g clip-path="url(#clip1)"><g clip-path="url(#clip2)"><g clip-path="url(#clip3)"><path d="M3.35228 3.35228 55.4244 3.35228 55.4244 69.057 3.35228 69.057Z" stroke="#053947" stroke-width="6.70791" stroke-linecap="butt" stroke-linejoin="miter" stroke-miterlimit="10" stroke-opacity="1" fill="none" fill-rule="nonzero" transform="matrix(1 0 0 1.03284 239 712.106)"></path><path d="M4.02274 4.69319 55.2009 4.69319 55.2009 14.0796 4.02274 14.0796Z" fill="#053947" fill-rule="nonzero" fill-opacity="1" transform="matrix(1 0 0 1.03284 239 712.106)"></path><path d="M12.2917 23.466 37.9925 23.466 37.9925 29.5001 12.2917 29.5001Z" stroke="#FFFFFF" stroke-width="0.709119" stroke-linecap="butt" stroke-linejoin="miter" stroke-miterlimit="10" stroke-opacity="1" fill="#053947" fill-rule="nonzero" fill-opacity="1" transform="matrix(1 0 0 1.03284 239 712.106)"></path><path d="M41.5683 23.466 46.9319 23.466 46.9319 29.5001 41.5683 29.5001Z" stroke="#FFFFFF" stroke-width="0.709119" stroke-linecap="butt" stroke-linejoin="miter" stroke-miterlimit="10" stroke-opacity="1" fill="#053947" fill-rule="nonzero" fill-opacity="1" transform="matrix(1 0 0 1.03284 239 712.106)"></path><path d="M12.2917 37.0986 37.9925 37.0986 37.9925 43.1327 12.2917 43.1327Z" stroke="#FFFFFF" stroke-width="0.709119" stroke-linecap="butt" stroke-linejoin="miter" stroke-miterlimit="10" stroke-opacity="1" fill="#053947" fill-rule="nonzero" fill-opacity="1" transform="matrix(1 0 0 1.03284 239 712.106)"></path><path d="M41.5683 37.0986 46.9319 37.0986 46.9319 43.1327 41.5683 43.1327Z" stroke="#FFFFFF" stroke-width="0.709119" stroke-linecap="butt" stroke-linejoin="miter" stroke-miterlimit="10" stroke-opacity="1" fill="#053947" fill-rule="nonzero" fill-opacity="1" transform="matrix(1 0 0 1.03284 239 712.106)"></path><path d="M12.2917 50.9547 37.9925 50.9547 37.9925 56.9888 12.2917 56.9888Z" stroke="#FFFFFF" stroke-width="0.709119" stroke-linecap="butt" stroke-linejoin="miter" stroke-miterlimit="10" stroke-opacity="1" fill="#053947" fill-rule="nonzero" fill-opacity="1" transform="matrix(1 0 0 1.03284 239 712.106)"></path><path d="M41.5683 50.9547 46.9319 50.9547 46.9319 56.9888 41.5683 56.9888Z" stroke="#FFFFFF" stroke-width="0.709119" stroke-linecap="butt" stroke-linejoin="miter" stroke-miterlimit="10" stroke-opacity="1" fill="#053947" fill-rule="nonzero" fill-opacity="1" transform="matrix(1 0 0 1.03284 239 712.106)"></path></g></g></g><path d="M163 783C163 780.238 165.462 778 168.5 778 171.538 778 174 780.238 174 783 174 785.761 171.538 788 168.5 788 165.462 788 163 785.761 163 783Z" fill="#CCCCCC" fill-rule="evenodd" fill-opacity="1"></path><path d="M184 783C184 780.238 186.462 778 189.5 778 192.537 778 195 780.238 195 783 195 785.761 192.537 788 189.5 788 186.462 788 184 785.761 184 783Z" fill="#CCCCCC" fill-rule="evenodd" fill-opacity="1"></path><path d="M205 783C205 780.238 207.462 778 210.5 778 213.537 778 216 780.238 216 783 216 785.761 213.537 788 210.5 788 207.462 788 205 785.761 205 783Z" fill="#CCCCCC" fill-rule="evenodd" fill-opacity="1"></path><path d="M1111 783C1111 780.238 1113.46 778 1116.5 778 1119.54 778 1122 780.238 1122 783 1122 785.761 1119.54 788 1116.5 788 1113.46 788 1111 785.761 1111 783Z" fill="#CCCCCC" fill-rule="evenodd" fill-opacity="1"></path><path d="M1132 783C1132 780.238 1134.46 778 1137.5 778 1140.54 778 1143 780.238 1143 783 1143 785.761 1140.54 788 1137.5 788 1134.46 788 1132 785.761 1132 783Z" fill="#CCCCCC" fill-rule="evenodd" fill-opacity="1"></path><path d="M1153 783C1153 780.238 1155.46 778 1158.5 778 1161.54 778 1164 780.238 1164 783 1164 785.761 1161.54 788 1158.5 788 1155.46 788 1153 785.761 1153 783Z" fill="#CCCCCC" fill-rule="evenodd" fill-opacity="1"></path><text fill="#343333" fill-opacity="1" font-family="Arial,Arial_MSFontService,sans-serif" font-style="normal" font-variant="normal" font-weight="400" font-stretch="normal" font-size="32" text-anchor="start" direction="ltr" writing-mode="lr-tb" text-decoration="none" transform="matrix(1 0 0 1 3766.77 2224)">© Scaled Agile, Inc.<tspan fill="#595959" fill-opacity="1" font-family="Arial,Arial_MSFontService,sans-serif" font-style="normal" font-variant="normal" font-weight="700" font-stretch="normal" font-size="55" text-anchor="start" direction="ltr" writing-mode="lr-tb" text-decoration="none" x="-3219.95" y="-1294">Iterations</tspan></text><path d="M593.743 206C593.743 314.115 594.397 744.656 594.397 745.993L412 743.983 844.648 2080 4048 853.717C2896.58 652.48 1745.16 407.237 593.743 206Z" fill="url(#fill4)" fill-rule="evenodd"></path><path d="M813 871.201C813 861.149 821.149 853 831.201 853L4030.8 853C4040.85 853 4049 861.149 4049 871.201L4049 2152.8C4049 2162.85 4040.85 2171 4030.8 2171L831.201 2171C821.149 2171 813 2162.85 813 2152.8Z" stroke="#595959" stroke-width="10.3125" stroke-linecap="butt" stroke-linejoin="miter" stroke-miterlimit="8" stroke-opacity="1" fill="#FDFDFD" fill-rule="evenodd" fill-opacity="1"></path><text fill="#FFFFFF" fill-opacity="1" font-family="Arial,Arial_MSFontService,sans-serif" font-style="normal" font-variant="normal" font-weight="700" font-stretch="normal" font-size="37" text-anchor="start" direction="ltr" writing-mode="lr-tb" text-decoration="none" transform="matrix(1 0 0 1 2384.33 1526)">Story<tspan fill="#343333" fill-opacity="1" font-family="Arial,Arial_MSFontService,sans-serif" font-style="normal" font-variant="normal" font-weight="700" font-stretch="normal" font-size="55" text-anchor="start" direction="ltr" writing-mode="lr-tb" text-decoration="none" x="-1522.78" y="62">Local team </tspan><tspan fill="#343333" fill-opacity="1" font-family="Arial,Arial_MSFontService,sans-serif" font-style="normal" font-variant="normal" font-weight="700" font-stretch="normal" font-size="55" text-anchor="start" direction="ltr" writing-mode="lr-tb" text-decoration="none" x="-1431.11" y="121">context</tspan></text><path d="M1611 1589.83 1714.81 1589.83 1714.81 1608.17 1611 1608.17ZM1705.65 1571.5 1760.65 1599 1705.65 1626.5Z" fill="#CCCCCC" fill-rule="nonzero" fill-opacity="1"></path><path d="M1173 1589.83 1276.81 1589.83 1276.81 1608.17 1173 1608.17ZM1267.65 1571.5 1322.65 1599 1267.64 1626.5Z" fill="#CCCCCC" fill-rule="nonzero" fill-opacity="1"></path><text fill="#343333" fill-opacity="1" font-family="Arial,Arial_MSFontService,sans-serif" font-style="normal" font-variant="normal" font-weight="700" font-stretch="normal" font-size="55" text-anchor="start" direction="ltr" writing-mode="lr-tb" text-decoration="none" transform="matrix(1 0 0 1 1397.27 1898)">Team<tspan fill="#343333" fill-opacity="1" font-family="Arial,Arial_MSFontService,sans-serif" font-style="normal" font-variant="normal" font-weight="700" font-stretch="normal" font-size="55" text-anchor="start" direction="ltr" writing-mode="lr-tb" text-decoration="none" x="-35.2229" y="59">Backlog</tspan></text><path d="M1822.38 2044.13 3901.37 2044.13 3901.37 2057.88 1822.38 2057.88ZM1829.25 2071.63 1788 2051 1829.25 2030.38ZM3894.5 2030.38 3935.75 2051 3894.5 2071.63Z" fill="#7F7F7F" fill-rule="nonzero" fill-opacity="1"></path><rect x="2253" y="1991" width="1264" height="102" fill="#FDFDFD" fill-opacity="1"></rect><text fill="#343333" fill-opacity="1" font-family="Arial,Arial_MSFontService,sans-serif" font-style="normal" font-variant="normal" font-weight="400" font-stretch="normal" font-size="60" text-anchor="start" direction="ltr" writing-mode="lr-tb" text-decoration="none" transform="matrix(1 0 0 1 2291.61 2062)">I<tspan fill="#343333" fill-opacity="1" font-family="Arial,Arial_MSFontService,sans-serif" font-style="normal" font-variant="normal" font-weight="400" font-stretch="normal" font-size="60" text-anchor="start" direction="ltr" writing-mode="lr-tb" text-decoration="none" x="29.2188" y="0">t</tspan><tspan fill="#343333" fill-opacity="1" font-family="Arial,Arial_MSFontService,sans-serif" font-style="normal" font-variant="normal" font-weight="400" font-stretch="normal" font-size="60" text-anchor="start" direction="ltr" writing-mode="lr-tb" text-decoration="none" x="58.4375" y="0">e</tspan><tspan fill="#343333" fill-opacity="1" font-family="Arial,Arial_MSFontService,sans-serif" font-style="normal" font-variant="normal" font-weight="400" font-stretch="normal" font-size="60" text-anchor="start" direction="ltr" writing-mode="lr-tb" text-decoration="none" x="104.271" y="0">r</tspan><tspan fill="#343333" fill-opacity="1" font-family="Arial,Arial_MSFontService,sans-serif" font-style="normal" font-variant="normal" font-weight="400" font-stretch="normal" font-size="60" text-anchor="start" direction="ltr" writing-mode="lr-tb" text-decoration="none" x="136.927" y="0">a</tspan><tspan fill="#343333" fill-opacity="1" font-family="Arial,Arial_MSFontService,sans-serif" font-style="normal" font-variant="normal" font-weight="400" font-stretch="normal" font-size="60" text-anchor="start" direction="ltr" writing-mode="lr-tb" text-decoration="none" x="182.761" y="0">t</tspan><tspan fill="#343333" fill-opacity="1" font-family="Arial,Arial_MSFontService,sans-serif" font-style="normal" font-variant="normal" font-weight="400" font-stretch="normal" font-size="60" text-anchor="start" direction="ltr" writing-mode="lr-tb" text-decoration="none" x="211.979" y="0">i</tspan><tspan fill="#343333" fill-opacity="1" font-family="Arial,Arial_MSFontService,sans-serif" font-style="normal" font-variant="normal" font-weight="400" font-stretch="normal" font-size="60" text-anchor="start" direction="ltr" writing-mode="lr-tb" text-decoration="none" x="237.761" y="0">o</tspan><tspan fill="#343333" fill-opacity="1" font-family="Arial,Arial_MSFontService,sans-serif" font-style="normal" font-variant="normal" font-weight="400" font-stretch="normal" font-size="60" text-anchor="start" direction="ltr" writing-mode="lr-tb" text-decoration="none" x="283.594" y="0">n </tspan><tspan fill="#343333" fill-opacity="1" font-family="Arial,Arial_MSFontService,sans-serif" font-style="normal" font-variant="normal" font-weight="400" font-stretch="normal" font-size="60" text-anchor="start" direction="ltr" writing-mode="lr-tb" text-decoration="none" x="366.667" y="0">(</tspan><tspan fill="#343333" fill-opacity="1" font-family="Arial,Arial_MSFontService,sans-serif" font-style="normal" font-variant="normal" font-weight="400" font-stretch="normal" font-size="60" text-anchor="start" direction="ltr" writing-mode="lr-tb" text-decoration="none" x="399.323" y="0">t</tspan><tspan fill="#343333" fill-opacity="1" font-family="Arial,Arial_MSFontService,sans-serif" font-style="normal" font-variant="normal" font-weight="400" font-stretch="normal" font-size="60" text-anchor="start" direction="ltr" writing-mode="lr-tb" text-decoration="none" x="428.542" y="0">y</tspan><tspan fill="#343333" fill-opacity="1" font-family="Arial,Arial_MSFontService,sans-serif" font-style="normal" font-variant="normal" font-weight="400" font-stretch="normal" font-size="60" text-anchor="start" direction="ltr" writing-mode="lr-tb" text-decoration="none" x="470.938" y="0">p</tspan><tspan fill="#343333" fill-opacity="1" font-family="Arial,Arial_MSFontService,sans-serif" font-style="normal" font-variant="normal" font-weight="400" font-stretch="normal" font-size="60" text-anchor="start" direction="ltr" writing-mode="lr-tb" text-decoration="none" x="516.771" y="0">i</tspan><tspan fill="#343333" fill-opacity="1" font-family="Arial,Arial_MSFontService,sans-serif" font-style="normal" font-variant="normal" font-weight="400" font-stretch="normal" font-size="60" text-anchor="start" direction="ltr" writing-mode="lr-tb" text-decoration="none" x="542.552" y="0">c</tspan><tspan fill="#343333" fill-opacity="1" font-family="Arial,Arial_MSFontService,sans-serif" font-style="normal" font-variant="normal" font-weight="400" font-stretch="normal" font-size="60" text-anchor="start" direction="ltr" writing-mode="lr-tb" text-decoration="none" x="584.948" y="0">a</tspan><tspan fill="#343333" fill-opacity="1" font-family="Arial,Arial_MSFontService,sans-serif" font-style="normal" font-variant="normal" font-weight="400" font-stretch="normal" font-size="60" text-anchor="start" direction="ltr" writing-mode="lr-tb" text-decoration="none" x="630.781" y="0">l</tspan><tspan fill="#343333" fill-opacity="1" font-family="Arial,Arial_MSFontService,sans-serif" font-style="normal" font-variant="normal" font-weight="400" font-stretch="normal" font-size="60" text-anchor="start" direction="ltr" writing-mode="lr-tb" text-decoration="none" x="656.563" y="0">l y </tspan><tspan fill="#343333" fill-opacity="1" font-family="Arial,Arial_MSFontService,sans-serif" font-style="normal" font-variant="normal" font-weight="400" font-stretch="normal" font-size="60" text-anchor="start" direction="ltr" writing-mode="lr-tb" text-decoration="none" x="761.979" y="0">t w o </tspan><tspan fill="#343333" fill-opacity="1" font-family="Arial,Arial_MSFontService,sans-serif" font-style="normal" font-variant="normal" font-weight="400" font-stretch="normal" font-size="60" text-anchor="start" direction="ltr" writing-mode="lr-tb" text-decoration="none" x="933.854" y="0">w</tspan><tspan fill="#343333" fill-opacity="1" font-family="Arial,Arial_MSFontService,sans-serif" font-style="normal" font-variant="normal" font-weight="400" font-stretch="normal" font-size="60" text-anchor="start" direction="ltr" writing-mode="lr-tb" text-decoration="none" x="989.427" y="0">e</tspan><tspan fill="#343333" fill-opacity="1" font-family="Arial,Arial_MSFontService,sans-serif" font-style="normal" font-variant="normal" font-weight="400" font-stretch="normal" font-size="60" text-anchor="start" direction="ltr" writing-mode="lr-tb" text-decoration="none" x="1035.26" y="0">e</tspan><tspan fill="#343333" fill-opacity="1" font-family="Arial,Arial_MSFontService,sans-serif" font-style="normal" font-variant="normal" font-weight="400" font-stretch="normal" font-size="60" text-anchor="start" direction="ltr" writing-mode="lr-tb" text-decoration="none" x="1081.09" y="0">k</tspan><tspan fill="#343333" fill-opacity="1" font-family="Arial,Arial_MSFontService,sans-serif" font-style="normal" font-variant="normal" font-weight="400" font-stretch="normal" font-size="60" text-anchor="start" direction="ltr" writing-mode="lr-tb" text-decoration="none" x="1123.49" y="0">s</tspan><tspan fill="#343333" fill-opacity="1" font-family="Arial,Arial_MSFontService,sans-serif" font-style="normal" font-variant="normal" font-weight="400" font-stretch="normal" font-size="60" text-anchor="start" direction="ltr" writing-mode="lr-tb" text-decoration="none" x="1165.89" y="0">)</tspan><tspan fill="#343333" fill-opacity="1" font-family="Arial,Arial_MSFontService,sans-serif" font-style="normal" font-variant="normal" font-weight="700" font-stretch="normal" font-size="55" text-anchor="start" direction="ltr" writing-mode="lr-tb" text-decoration="none" x="-482.423" y="-164">Iteration </tspan><tspan fill="#343333" fill-opacity="1" font-family="Arial,Arial_MSFontService,sans-serif" font-style="normal" font-variant="normal" font-weight="700" font-stretch="normal" font-size="55" text-anchor="start" direction="ltr" writing-mode="lr-tb" text-decoration="none" x="-490.444" y="-105">Planning</tspan></text><path d="M2046 1590.83 2123.84 1590.83 2123.84 1609.17 2046 1609.17ZM2114.67 1572.5 2169.67 1600 2114.67 1627.5Z" fill="#CCCCCC" fill-rule="nonzero" fill-opacity="1"></path><text fill="#343333" fill-opacity="1" font-family="Arial,Arial_MSFontService,sans-serif" font-style="normal" font-variant="normal" font-weight="700" font-stretch="normal" font-size="55" text-anchor="start" direction="ltr" writing-mode="lr-tb" text-decoration="none" transform="matrix(1 0 0 1 1836.08 1484)">Goals<tspan fill="#343333" fill-opacity="1" font-family="Arial,Arial_MSFontService,sans-serif" font-style="normal" font-variant="normal" font-weight="700" font-stretch="normal" font-size="55" text-anchor="start" direction="ltr" writing-mode="lr-tb" text-decoration="none" x="-91.0559" y="-311">PI Objectives</tspan></text><path d="M1980.5 1091.5 2074.46 1091.5" stroke="#B2B2B2" stroke-width="6.875" stroke-linecap="butt" stroke-linejoin="miter" stroke-miterlimit="8" stroke-opacity="1" fill="none" fill-rule="evenodd"></path><path d="M1762 1091C1762 1086.58 1765.58 1083 1770 1083 1774.42 1083 1778 1086.58 1778 1091 1778 1095.42 1774.42 1099 1770 1099 1765.58 1099 1762 1095.42 1762 1091Z" fill="#CCCCCC" fill-rule="evenodd" fill-opacity="1"></path><path d="M1793 1091C1793 1086.58 1796.81 1083 1801.5 1083 1806.19 1083 1810 1086.58 1810 1091 1810 1095.42 1806.19 1099 1801.5 1099 1796.81 1099 1793 1095.42 1793 1091Z" fill="#CCCCCC" fill-rule="evenodd" fill-opacity="1"></path><path d="M1825 1091C1825 1086.58 1828.58 1083 1833 1083 1837.42 1083 1841 1086.58 1841 1091 1841 1095.42 1837.42 1099 1833 1099 1828.58 1099 1825 1095.42 1825 1091Z" fill="#CCCCCC" fill-rule="evenodd" fill-opacity="1"></path><path d="M1926.42 1269.78 1926.98 1371.15 1908.65 1371.25 1908.09 1269.88ZM1889.81 1279.15 1917 1224 1944.8 1278.85ZM1945.26 1361.88 1918.07 1417.03 1890.26 1362.18Z" fill="#CCCCCC" fill-rule="nonzero" fill-opacity="1"></path><text fill="#343333" fill-opacity="1" font-family="Arial,Arial_MSFontService,sans-serif" font-style="normal" font-variant="normal" font-weight="700" font-stretch="normal" font-size="55" text-anchor="start" direction="ltr" writing-mode="lr-tb" text-decoration="none" transform="matrix(1 0 0 1 919.938 1074)">Stories from <tspan fill="#343333" fill-opacity="1" font-family="Arial,Arial_MSFontService,sans-serif" font-style="normal" font-variant="normal" font-weight="700" font-stretch="normal" font-size="55" text-anchor="start" direction="ltr" writing-mode="lr-tb" text-decoration="none" x="11.4583" y="59">PI Planning</tspan></text><path d="M1401.57 1187.75 1454.35 1327.01 1437.2 1333.51 1384.43 1194.25ZM1468.24 1311.94 1462.02 1373.12 1416.81 1331.44Z" fill="#CCCCCC" fill-rule="nonzero" fill-opacity="1"></path><text fill="#343333" fill-opacity="1" font-family="Arial,Arial_MSFontService,sans-serif" font-style="normal" font-variant="normal" font-weight="700" font-stretch="normal" font-size="55" text-anchor="start" direction="ltr" writing-mode="lr-tb" text-decoration="none" transform="matrix(1 0 0 1 3273.77 1957)">Increment<tspan fill="#343333" fill-opacity="1" font-family="Arial,Arial_MSFontService,sans-serif" font-style="normal" font-variant="normal" font-weight="700" font-stretch="normal" font-size="55" text-anchor="start" direction="ltr" writing-mode="lr-tb" text-decoration="none" x="-16.5906" y="-525">Iteration</tspan><tspan fill="#343333" fill-opacity="1" font-family="Arial,Arial_MSFontService,sans-serif" font-style="normal" font-variant="normal" font-weight="700" font-stretch="normal" font-size="55" text-anchor="start" direction="ltr" writing-mode="lr-tb" text-decoration="none" x="-2.56543" y="-466">Review</tspan><tspan fill="#343333" fill-opacity="1" font-family="Arial,Arial_MSFontService,sans-serif" font-style="normal" font-variant="normal" font-weight="700" font-stretch="normal" font-size="55" text-anchor="start" direction="ltr" writing-mode="lr-tb" text-decoration="none" x="398.896" y="-59">Iteration</tspan><tspan fill="#343333" fill-opacity="1" font-family="Arial,Arial_MSFontService,sans-serif" font-style="normal" font-variant="normal" font-weight="700" font-stretch="normal" font-size="55" text-anchor="start" direction="ltr" writing-mode="lr-tb" text-decoration="none" x="326.135" y="0">Retrospective</tspan><tspan fill="#343333" fill-opacity="1" font-family="Arial,Arial_MSFontService,sans-serif" font-style="normal" font-variant="normal" font-weight="700" font-stretch="normal" font-size="55" text-anchor="start" direction="ltr" writing-mode="lr-tb" text-decoration="none" x="-520.917" y="0">Deliver</tspan></text><path d="M2996.33 1537.82C3001.11 1657.57 2908.13 1758.53 2788.66 1763.33 2782.2 1763.59 2775.74 1763.55 2769.29 1763.23" stroke="#FDFDFD" stroke-width="44.6875" stroke-linecap="butt" stroke-linejoin="miter" stroke-miterlimit="8" stroke-opacity="1" fill="none" fill-rule="evenodd"></path><text fill="#343333" fill-opacity="1" font-family="Arial,Arial_MSFontService,sans-serif" font-style="normal" font-variant="normal" font-weight="700" font-stretch="normal" font-size="48" text-anchor="start" direction="ltr" writing-mode="lr-tb" text-decoration="none" transform="matrix(1 0 0 1 2828.99 1255)">Team <tspan fill="#343333" fill-opacity="1" font-family="Arial,Arial_MSFontService,sans-serif" font-style="normal" font-variant="normal" font-weight="700" font-stretch="normal" font-size="48" text-anchor="start" direction="ltr" writing-mode="lr-tb" text-decoration="none" x="5.4541" y="52">Sync</tspan></text><g clip-path="url(#clip5)"><g clip-path="url(#clip6)"><g clip-path="url(#clip7)"><path d="M28.0735 92 54.7941 92" stroke="#2E7F80" stroke-width="10.1471" stroke-linecap="round" stroke-linejoin="round" stroke-miterlimit="10" stroke-opacity="1" fill="none" fill-rule="nonzero" transform="matrix(1 0 0 1.02007 3261 1188.29)"></path><path d="M26.7206 63.5882 65.2794 63.5882" stroke="#2E7F80" stroke-width="10.1471" stroke-linecap="round" stroke-linejoin="round" stroke-miterlimit="10" stroke-opacity="1" fill="none" fill-rule="nonzero" transform="matrix(1 0 0 1.02007 3261 1188.29)"></path><path d="M26.7206 36.5294 108.912 36.5294" stroke="#2E7F80" stroke-width="10.1471" stroke-linecap="round" stroke-linejoin="round" stroke-miterlimit="10" stroke-opacity="1" fill="none" fill-rule="nonzero" transform="matrix(1 0 0 1.02007 3261 1188.29)"></path><path d="M132.588 26.0441 132.588 6.08823 5.41176 6.08823 5.41176 118.044 87.9411 118.044" stroke="#2E7F80" stroke-width="10.1471" stroke-linecap="round" stroke-linejoin="round" stroke-miterlimit="10" stroke-opacity="1" fill="none" fill-rule="nonzero" transform="matrix(1 0 0 1.02007 3261 1188.29)"></path><path d="M179.265 60.2059C179.265 71.9744 169.724 81.5147 157.956 81.5147 146.187 81.5147 136.647 71.9744 136.647 60.2059 136.647 48.4373 146.187 38.897 157.956 38.897 169.724 38.897 179.265 48.4373 179.265 60.2059Z" stroke="#2E7F80" stroke-width="10.1471" stroke-linecap="round" stroke-linejoin="round" stroke-miterlimit="10" stroke-opacity="1" fill="none" fill-rule="nonzero" transform="matrix(1 0 0 1.02007 3261 1188.29)"></path><path d="M84.2206 73.7353 126.5 102.147C147.132 102.147 167.765 102.147 188.059 102.147 189.073 102.147 194.485 102.485 198.544 107.221 202.603 111.956 201.926 117.368 201.926 118.382 201.926 135.294 201.926 152.206 201.926 169.118" stroke="#2E7F80" stroke-width="10.1471" stroke-linecap="round" stroke-linejoin="round" stroke-miterlimit="10" stroke-opacity="1" fill="none" fill-rule="nonzero" transform="matrix(1 0 0 1.02007 3261 1188.29)"></path><path d="M136.985 124.132 136.985 170.471" stroke="#2E7F80" stroke-width="10.1471" stroke-linecap="round" stroke-linejoin="round" stroke-miterlimit="10" stroke-opacity="1" fill="none" fill-rule="nonzero" transform="matrix(1 0 0 1.02007 3261 1188.29)"></path><path d="M176.221 124.132 176.221 170.471" stroke="#2E7F80" stroke-width="10.1471" stroke-linecap="round" stroke-linejoin="round" stroke-miterlimit="10" stroke-opacity="1" fill="none" fill-rule="nonzero" transform="matrix(1 0 0 1.02007 3261 1188.29)"></path></g></g></g><text fill="#343333" fill-opacity="1" font-family="Arial,Arial_MSFontService,sans-serif" font-style="normal" font-variant="normal" font-weight="700" font-stretch="normal" font-size="55" text-anchor="start" direction="ltr" writing-mode="lr-tb" text-decoration="none" transform="matrix(1 0 0 1 2203.52 1898)">Iteration <tspan fill="#343333" fill-opacity="1" font-family="Arial,Arial_MSFontService,sans-serif" font-style="normal" font-variant="normal" font-weight="700" font-stretch="normal" font-size="55" text-anchor="start" direction="ltr" writing-mode="lr-tb" text-decoration="none" x="1.71875" y="59">Backlog</tspan></text><path d="M1922.5 1645.71C1931.81 1622.95 1984.32 1618.16 2001.8 1620.56 2019.27 1622.96 2021.93 1654.43 2027.33 1660.12 2032.74 1665.8 2026.78 1656.19 2034.23 1654.69 2041.69 1653.19 2063.67 1644.81 2072.08 1651.1 2080.49 1657.38 2080.79 1683.43 2084.7 1692.41 2088.6 1701.39 2093.71 1693.61 2095.51 1704.99 2097.31 1716.36 2120.44 1751.99 2095.51 1760.67 2070.58 1769.35 1974.76 1775.34 1945.93 1757.08 1917.09 1738.82 1913.19 1668.46 1922.5 1645.71Z" fill="#FDFDFD" fill-rule="evenodd" fill-opacity="1"></path><text fill="#343333" fill-opacity="1" font-family="Arial,Arial_MSFontService,sans-serif" font-style="normal" font-variant="normal" font-weight="700" font-stretch="normal" font-size="55" text-anchor="start" direction="ltr" writing-mode="lr-tb" text-decoration="none" transform="matrix(1 0 0 1 3675.85 1428)">System <tspan fill="#343333" fill-opacity="1" font-family="Arial,Arial_MSFontService,sans-serif" font-style="normal" font-variant="normal" font-weight="700" font-stretch="normal" font-size="55" text-anchor="start" direction="ltr" writing-mode="lr-tb" text-decoration="none" x="6.0271" y="63">Demos</tspan></text><path d="M1310 1093 1487 1093 1487 1172 1310 1172Z" fill="#336887" fill-rule="evenodd" fill-opacity="1"></path><text fill="#FFFFFF" fill-opacity="1" font-family="Arial,Arial_MSFontService,sans-serif" font-style="normal" font-variant="normal" font-weight="700" font-stretch="normal" font-size="41" text-anchor="start" direction="ltr" writing-mode="lr-tb" text-decoration="none" transform="matrix(1 0 0 1 1345.38 1147)">Story</text><path d="M1310 1002 1487 1002 1487 1080 1310 1080Z" fill="#A62423" fill-rule="evenodd" fill-opacity="1"></path><text fill="#FFFFFF" fill-opacity="1" font-family="Arial,Arial_MSFontService,sans-serif" font-style="normal" font-variant="normal" font-weight="700" font-stretch="normal" font-size="41" text-anchor="start" direction="ltr" writing-mode="lr-tb" text-decoration="none" transform="matrix(1 0 0 1 1345.38 1056)">Story</text><g clip-path="url(#clip8)"><g clip-path="url(#clip9)"><g clip-path="url(#clip10)"><path d="M173.952 99.3526C173.952 75.6165 173.952 51.8804 173.952 27.8052 118.002 27.8052 61.7139 27.8052 5.76448 27.8052 5.76448 82.3982 5.76448 136.991 5.76448 191.584 30.1788 191.584 54.9321 191.584 79.3464 191.584" stroke="#2E7F80" stroke-width="10.1726" stroke-linecap="round" stroke-linejoin="round" stroke-miterlimit="10" stroke-opacity="1" fill="none" fill-rule="nonzero" transform="matrix(1 0 0 1.00261 1826.54 1511)"></path><path d="M5.4254 79.3464 170.9 79.3464" stroke="#2E7F80" stroke-width="10.1726" stroke-linecap="round" stroke-linejoin="round" stroke-miterlimit="10" stroke-opacity="1" fill="none" fill-rule="nonzero" transform="matrix(1 0 0 1.00261 1826.54 1511)"></path><path d="M44.0813 56.9667 44.0813 56.9667C37.9778 56.9667 32.8915 51.8804 32.8915 45.7768L32.8915 16.6153C32.8915 10.5117 37.9778 5.4254 44.0813 5.4254 50.1849 5.4254 55.2712 10.5117 55.2712 16.6153L55.2712 45.7768C55.2712 51.8804 50.1849 56.9667 44.0813 56.9667Z" stroke="#2E7F80" stroke-width="10.1726" stroke-linecap="round" stroke-linejoin="round" stroke-miterlimit="10" stroke-opacity="1" fill="#FFFFFF" fill-rule="nonzero" fill-opacity="1" transform="matrix(1 0 0 1.00261 1826.54 1511)"></path><path d="M134.279 56.9667 134.279 56.9667C128.175 56.9667 123.089 51.8804 123.089 45.7768L123.089 16.6153C123.089 10.5117 128.175 5.4254 134.279 5.4254 140.382 5.4254 145.468 10.5117 145.468 16.6153L145.468 45.7768C145.468 51.8804 140.382 56.9667 134.279 56.9667Z" stroke="#2E7F80" stroke-width="10.1726" stroke-linecap="round" stroke-linejoin="round" stroke-miterlimit="10" stroke-opacity="1" fill="#FFFFFF" fill-rule="nonzero" fill-opacity="1" transform="matrix(1 0 0 1.00261 1826.54 1511)"></path><path d="M37.6387 111.56 50.8631 111.56 50.8631 124.784 37.6387 124.784Z" fill="#2E7F80" fill-rule="nonzero" fill-opacity="1" transform="matrix(1 0 0 1.00261 1826.54 1511)"></path><path d="M37.6387 144.451 50.8631 144.451 50.8631 157.676 37.6387 157.676Z" fill="#2E7F80" fill-rule="nonzero" fill-opacity="1" transform="matrix(1 0 0 1.00261 1826.54 1511)"></path><path d="M68.1565 144.451 81.3809 144.451 81.3809 157.676 68.1565 157.676Z" fill="#2E7F80" fill-rule="nonzero" fill-opacity="1" transform="matrix(1 0 0 1.00261 1826.54 1511)"></path><path d="M68.1565 110.882 81.3809 110.882 81.3809 124.106 68.1565 124.106Z" fill="#2E7F80" fill-rule="nonzero" fill-opacity="1" transform="matrix(1 0 0 1.00261 1826.54 1511)"></path><path d="M98.6744 110.882 111.899 110.882 111.899 124.106 98.6744 124.106Z" fill="#2E7F80" fill-rule="nonzero" fill-opacity="1" transform="matrix(1 0 0 1.00261 1826.54 1511)"></path><path d="M134.279 169.205 134.279 197.349C134.279 201.418 134.279 201.418 139.365 201.418L163.101 201.418C163.101 201.418 151.233 159.032 149.537 157.337 140.382 160.049 134.279 159.71 134.279 169.205" fill="#4D3C5B" fill-rule="nonzero" fill-opacity="1" transform="matrix(1 0 0 1.00261 1826.54 1511)"></path><path d="M166.831 162.762 163.101 159.032 159.371 162.762 160.049 163.101 162.084 165.135 160.727 175.647 163.101 183.107 165.814 175.647 164.457 165.135 166.492 163.101Z" fill="#4D3C5B" fill-rule="nonzero" fill-opacity="1" transform="matrix(1 0 0 1.00261 1826.54 1511)"></path><path d="M163.101 156.997C169.205 156.997 178.699 147.842 178.699 136.991 178.699 125.801 174.291 116.985 163.101 116.985 151.911 116.985 147.503 126.14 147.503 136.991 147.842 148.181 156.997 156.997 163.101 156.997" fill="#7C7B7C" fill-rule="nonzero" fill-opacity="1" transform="matrix(1 0 0 1.00261 1826.54 1511)"></path><path d="M134.957 177.682C133.6 179.038 130.549 186.837 121.732 186.837 112.916 186.837 109.525 179.038 108.169 177.682 99.0135 180.734 92.2317 180.394 92.2317 189.55L92.2317 217.694C92.2317 221.763 93.5881 221.085 98.6744 221.085L120.715 221.085 122.071 221.085 144.112 221.085C149.198 221.085 150.894 222.102 150.894 217.694L150.894 189.55C150.894 180.394 144.112 180.734 134.957 177.682" fill="#745A8A" fill-rule="nonzero" fill-opacity="1" transform="matrix(1 0 0 1.00261 1826.54 1511)"></path><path d="M122.071 177.682C128.175 177.682 137.669 168.526 137.669 157.676 137.669 146.486 133.261 137.669 122.071 137.669 110.882 137.669 106.473 146.825 106.473 157.676 106.473 168.526 115.629 177.682 122.071 177.682" fill="#7C7B7C" fill-rule="nonzero" fill-opacity="1" transform="matrix(1 0 0 1.00261 1826.54 1511)"></path><path d="M235.666 186.498C233.97 187.854 229.223 199.044 222.102 199.044 214.981 199.044 213.286 195.314 209.556 188.533L209.556 220.746 221.424 220.746 222.441 220.746 245.16 220.746C250.246 220.746 250.925 220.746 250.925 216.677L250.925 198.366C250.925 188.872 244.821 189.211 235.666 186.498" fill="#4D3C5B" fill-rule="nonzero" fill-opacity="1" transform="matrix(1 0 0 1.00261 1826.54 1511)"></path><path d="M222.441 186.159C216.338 186.159 206.843 177.004 206.843 166.153 206.843 154.963 211.251 146.147 222.441 146.147 233.631 146.147 238.039 155.302 238.039 166.153 238.039 177.343 228.884 186.159 222.441 186.159" fill="#7C7B7C" fill-rule="nonzero" fill-opacity="1" transform="matrix(1 0 0 1.00261 1826.54 1511)"></path><path d="M194.297 195.653C192.941 197.01 187.176 210.573 180.394 210.912 173.613 210.912 168.865 196.671 167.509 195.314 158.354 198.366 154.285 197.688 154.285 206.843L154.285 234.987C154.285 239.057 152.589 238.378 157.676 238.378L179.716 238.378 181.412 238.378 203.452 238.378C208.539 238.378 206.165 239.396 206.165 234.987L206.165 206.843C206.165 197.688 203.452 198.705 194.297 195.653" fill="#4D3C5B" fill-rule="nonzero" fill-opacity="1" transform="matrix(1 0 0 1.00261 1826.54 1511)"></path><path d="M201.079 186.159 192.262 162.084C189.889 158.693 185.82 154.624 179.377 154.624 172.935 154.624 168.865 158.693 166.492 162.084L155.98 186.159 167.509 186.159C170.9 191.245 175.647 194.636 179.716 194.636 183.446 194.636 188.533 191.245 191.923 186.159L201.079 186.159Z" fill="#7C7B7C" fill-rule="nonzero" fill-opacity="1" transform="matrix(1 0 0 1.00261 1826.54 1511)"></path><path d="M76.6337 207.182C82.7373 207.182 92.2317 198.027 92.2317 187.176 92.2317 175.986 87.8236 167.17 76.6337 167.17 65.4438 167.17 61.0357 176.325 61.0357 187.176 61.3748 198.027 70.5302 207.182 76.6337 207.182" fill="#7C7B7C" fill-rule="nonzero" fill-opacity="1" transform="matrix(1 0 0 1.00261 1826.54 1511)"></path><path d="M62.7311 177.004C62.7311 177.004 59.0012 201.418 52.8976 201.418 46.794 201.757 56.2885 205.148 63.0702 203.791 69.852 202.435 70.5302 200.74 70.5302 200.74L62.7311 177.004Z" fill="#7C7B7C" fill-rule="nonzero" fill-opacity="1" transform="matrix(1 0 0 1.00261 1826.54 1511)"></path><path d="M77.3119 214.303C73.2429 214.303 67.8175 210.234 64.4266 204.47 55.2712 207.182 50.1849 207.182 50.1849 216.338L50.1849 234.648C50.1849 238.717 48.8286 238.039 53.9149 238.039L76.2946 238.039 77.9901 238.039 88.5018 238.039 88.5018 207.182C85.1109 211.59 81.0419 214.303 77.3119 214.303" fill="#AC96C0" fill-rule="nonzero" fill-opacity="1" transform="matrix(1 0 0 1.00261 1826.54 1511)"></path></g></g></g><g clip-path="url(#clip11)"><g clip-path="url(#clip12)"><g clip-path="url(#clip13)"><path d="M55.079 29.4211C39.3421 35.9211 33.1842 42.7632 27.3684 58.8421 26 62.2632 28.0526 66.3684 31.4737 67.7369 32.1579 68.079 32.8421 68.079 33.8684 68.079 36.6053 68.079 39.3421 66.3684 40.3684 63.6316 44.8158 50.9737 48.2369 47.5527 60.2106 42.4211 63.6316 41.0527 65.3421 36.9474 63.9737 33.5263 62.6053 29.7632 58.5 28.0526 55.079 29.4211Z" fill="#2E7F80" fill-rule="nonzero" fill-opacity="1" transform="matrix(1 0 0 1.00382 3694 1600.16)"></path><path d="M154.632 138.211 109.816 97.8421C117.684 87.579 122.132 74.9211 122.132 60.8948 122.132 27.3684 94.7632 0 61.2369 0 27.7105 0 0 27.3684 0 61.2369 0 95.1053 27.3684 122.474 61.2369 122.474 74.2369 122.474 86.5527 118.368 96.4737 111.184 96.4737 111.184 96.4737 111.184 96.4737 111.184L133.763 157.711C134.447 158.395 135.474 159.079 136.5 159.079 136.842 159.079 136.842 159.079 137.184 159.079 140.263 158.395 145.053 157.026 149.158 153.263 153.605 149.158 155.316 144.368 156 141.632 156 140.263 155.658 138.895 154.632 138.211ZM61.2369 108.447C34.8948 108.447 13.6842 87.2369 13.6842 61.2369 13.6842 35.2369 34.8948 13.6842 61.2369 13.6842 87.579 13.6842 108.79 34.8948 108.79 61.2369 108.79 87.579 87.2369 108.447 61.2369 108.447Z" fill="#2E7F80" fill-rule="nonzero" fill-opacity="1" transform="matrix(1 0 0 1.00382 3694 1600.16)"></path></g></g></g><path d="M2969.65 1597.06C2960.06 1646.58 2934.72 1691.32 2898.42 1722.74 2893.62 1726.84 2888.83 1730.94 2883.69 1734.36 2876.16 1739.82 2868.62 1744.26 2861.09 1748.36 2826.16 1767.14 2790.54 1773.29 2763.83 1775L2763.14 1775 2626.16 1775 2626.16 1734.02 2762.46 1734.02C2792.25 1732.31 2835.06 1723.43 2871.36 1692.01 2933 1638.38 2950.81 1542.07 2912.46 1467.61 2881.63 1407.16 2819.99 1368.22 2754.93 1364.81 2752.53 1364.13 2749.79 1364.13 2747.05 1364.13 2736.78 1364.13 2726.16 1364.81 2715.54 1366.52 2627.19 1381.2 2571.71 1458.39 2561.78 1526.7L2520 1531.14C2520 1531.14 2520 1530.8 2520 1530.46 2528.22 1443.36 2595.68 1345 2708.69 1326.21 2716.23 1324.85 2723.42 1324.16 2730.95 1323.48 2745.34 1322.46 2760.06 1323.14 2774.1 1324.85 2847.39 1334.41 2914.51 1380.18 2949.44 1448.49 2972.39 1493.57 2979.58 1546.51 2969.65 1597.06Z" fill="#2E7F80" fill-rule="evenodd" fill-opacity="1"></path><path d="M2562 1527C2561.65 1529.6 2561.31 1531.87 2560.96 1534.48 2560.61 1536.43 2560.61 1538.05 2560.61 1540L2519 1537.72C2519 1535.78 2519.35 1533.5 2519.69 1531.22L2562 1527Z" fill="#2E7F80" fill-rule="evenodd" fill-opacity="1"></path><path d="M2615 1521 2547.76 1603 2465 1536.65 2519.83 1531.21 2561.9 1526.78Z" fill="#2E7F80" fill-rule="evenodd" fill-opacity="1"></path><path d="M3060.21 1311.07C3058.5 1326.12 3055.07 1341.18 3048.91 1355.21 3048.23 1356.92 3047.54 1358.29 3046.86 1360L3009.53 1343.23C3011.25 1339.47 3012.62 1335.7 3013.99 1332.28 3016.72 1324.07 3018.44 1315.51 3019.46 1306.96 3025.28 1251.18 2988.3 1212.85 2980.77 1205.67 2945.85 1172.13 2882.84 1154 2829.77 1183.77 2793.13 1204.3 2768.82 1243.99 2768.13 1284.37 2767.79 1299.77 2770.87 1313.46 2774.64 1324.75 2760.26 1322.7 2745.88 1322.36 2731.49 1323.38 2728.41 1311.41 2726.7 1298.06 2727.04 1283.69 2728.41 1228.94 2760.6 1175.9 2809.56 1148.18 2871.88 1112.93 2955.78 1124.91 3009.19 1175.9 3019.12 1185.48 3067.74 1236.47 3060.21 1311.07Z" fill="#2E7F80" fill-rule="evenodd" fill-opacity="1"></path><path d="M3084 1378.39 2980 1309 2997.51 1396Z" fill="#2E7F80" fill-rule="evenodd" fill-opacity="1"></path><path d="M3054 1735 3054 1775 2766 1775 2766 1748.9C2773.54 1744.83 2781.09 1740.42 2788.63 1735L3054 1735Z" fill="#2E7F80" fill-rule="evenodd" fill-opacity="1"></path><path d="M3046 1693 3046 1816 3107 1754.5Z" fill="#2E7F80" fill-rule="evenodd" fill-opacity="1"></path><g clip-path="url(#clip14)"><g clip-path="url(#clip15)"><g clip-path="url(#clip16)"><path d="M3404.34 1700.07 3403.33 1845 3301.22 1785.38 3298.7 1658.08 3404.34 1700.07Z" fill="#E3C88A" fill-rule="nonzero" fill-opacity="1"></path><path d="M3403.66 1700.07 3403.33 1845 3506.61 1785.38 3509.3 1658.08 3403.66 1700.07Z" fill="#D4AB4E" fill-rule="nonzero" fill-opacity="1"></path><path d="M3298.7 1658.08 3403.33 1705.44 3509.3 1658.08 3405.01 1625 3298.7 1658.08Z" fill="url(#fill17)" fill-rule="nonzero"></path><path d="M3368.06 1636.76 3348.75 1642.8 3452.2 1683.44 3469.33 1675.89 3368.06 1636.76Z" fill="#2D7E7F" fill-rule="nonzero" fill-opacity="1"></path><path d="M3467.31 1675.89 3452.7 1682.1 3452.7 1745.24 3461.94 1738.36 3469.33 1740.54 3469.33 1675.89 3467.31 1675.89Z" fill="#2D7E7F" fill-rule="nonzero" fill-opacity="1"></path></g></g></g><path d="M3863.5 1181.5C3863.5 1183.71 3861.71 1185.5 3859.5 1185.5 3857.29 1185.5 3855.5 1183.71 3855.5 1181.5 3855.5 1179.29 3857.29 1177.5 3859.5 1177.5 3861.71 1177.5 3863.5 1179.29 3863.5 1181.5Z" stroke="#D4AB4E" stroke-width="0.98668" stroke-linecap="butt" stroke-linejoin="miter" stroke-miterlimit="8" stroke-opacity="1" fill="#E3C88A" fill-rule="evenodd" fill-opacity="1"></path><path d="M3805.5 1181.5C3805.5 1183.71 3803.71 1185.5 3801.5 1185.5 3799.29 1185.5 3797.5 1183.71 3797.5 1181.5 3797.5 1179.29 3799.29 1177.5 3801.5 1177.5 3803.71 1177.5 3805.5 1179.29 3805.5 1181.5Z" stroke="#D4AB4E" stroke-width="0.98668" stroke-linecap="butt" stroke-linejoin="miter" stroke-miterlimit="8" stroke-opacity="1" fill="#E3C88A" fill-rule="evenodd" fill-opacity="1"></path><path d="M3748.5 1181.5C3748.5 1183.71 3746.71 1185.5 3744.5 1185.5 3742.29 1185.5 3740.5 1183.71 3740.5 1181.5 3740.5 1179.29 3742.29 1177.5 3744.5 1177.5 3746.71 1177.5 3748.5 1179.29 3748.5 1181.5Z" stroke="#D4AB4E" stroke-width="0.98668" stroke-linecap="butt" stroke-linejoin="miter" stroke-miterlimit="8" stroke-opacity="1" fill="#E3C88A" fill-rule="evenodd" fill-opacity="1"></path><path d="M3690.5 1181.5C3690.5 1183.71 3688.71 1185.5 3686.5 1185.5 3684.29 1185.5 3682.5 1183.71 3682.5 1181.5 3682.5 1179.29 3684.29 1177.5 3686.5 1177.5 3688.71 1177.5 3690.5 1179.29 3690.5 1181.5Z" stroke="#D4AB4E" stroke-width="0.98668" stroke-linecap="butt" stroke-linejoin="miter" stroke-miterlimit="8" stroke-opacity="1" fill="#E3C88A" fill-rule="evenodd" fill-opacity="1"></path><path d="M3922.5 1181.5C3922.5 1184.81 3919.81 1187.5 3916.5 1187.5 3913.19 1187.5 3910.5 1184.81 3910.5 1181.5 3910.5 1178.19 3913.19 1175.5 3916.5 1175.5 3919.81 1175.5 3922.5 1178.19 3922.5 1181.5Z" stroke="#D4AB4E" stroke-width="0.98668" stroke-linecap="butt" stroke-linejoin="miter" stroke-miterlimit="8" stroke-opacity="1" fill="#E3C88A" fill-rule="evenodd" fill-opacity="1"></path><path d="M3918.96 1369 3914 1369 3914 1179.33C3914 1178.99 3914.77 1178 3916.5 1178 3918.23 1178 3919 1179.02 3919 1179.33L3919 1369Z" fill="#E3C88A" fill-rule="evenodd" fill-opacity="0.45098"></path><path d="M3934.5 1199.91 3917.1 1217.5 3899.5 1200.09 3916.9 1182.5 3934.5 1199.91Z" stroke="#D4AB4E" stroke-width="0.98668" stroke-linecap="butt" stroke-linejoin="miter" stroke-miterlimit="8" stroke-opacity="1" fill="#E3C88A" fill-rule="evenodd" fill-opacity="1"></path><path d="M3910 1204 3910 1195C3910 1195 3912 1195 3912 1195L3912 1204C3912 1204 3910 1204 3910 1204Z" fill="#333333" fill-rule="evenodd" fill-opacity="1"></path><path d="M3914.91 1203.94 3914.63 1203.55C3914.29 1203.85 3913.91 1204 3913.44 1204 3912.58 1204 3912 1203.58 3912 1202.83 3912 1202.13 3912.44 1201.62 3913.06 1201.23 3912.75 1200.84 3912.51 1200.57 3912.48 1200.08 3912.48 1199.33 3912.92 1199 3913.78 1199 3914.5 1199 3915.11 1199.3 3915.11 1199.99 3915.11 1200.57 3914.63 1201.05 3914.15 1201.38L3914.84 1202.37C3915.04 1202.13 3915.18 1201.86 3915.28 1201.59L3915.97 1201.86C3915.79 1202.25 3915.56 1202.61 3915.25 1202.98 3915.52 1203.31 3915.76 1203.64 3916 1203.97L3914.94 1203.97ZM3913.44 1201.83C3913.09 1202.07 3912.92 1202.4 3912.92 1202.8 3912.92 1203.13 3913.2 1203.4 3913.57 1203.4 3913.85 1203.4 3914.09 1203.25 3914.26 1203.07L3913.44 1201.86ZM3913.78 1199.57C3913.44 1199.57 3913.3 1199.72 3913.3 1200.02 3913.3 1200.33 3913.5 1200.63 3913.68 1200.84 3913.91 1200.66 3914.26 1200.33 3914.26 1200.02 3914.26 1199.72 3914.12 1199.6 3913.78 1199.6Z" fill="#333333" fill-rule="evenodd" fill-opacity="1"></path><path d="M3920.35 1204 3919.9 1201.76 3918.04 1201.76C3918.04 1201.76 3917.61 1204 3917.61 1204L3916 1204C3916 1204 3917.86 1195 3917.86 1195L3920.04 1195C3920.04 1195 3922 1203.97 3922 1203.97L3920.35 1203.97ZM3918.95 1196.17C3918.7 1197.66 3918.21 1200.52 3918.21 1200.52L3919.75 1200.52C3919.75 1200.52 3919.16 1197.66 3918.95 1196.17Z" fill="#333333" fill-rule="evenodd" fill-opacity="1"></path><path d="M3920.71 1191.61C3918.78 1190.92 3916.65 1190.85 3914.65 1191.23 3912.62 1191.64 3910.7 1192.5 3909 1193.8 3907.48 1195 3906.13 1196.65 3905.45 1198.64L3904 1198.64C3904 1198.64 3906.57 1203 3906.57 1203L3909 1198.57 3907.69 1198.57C3908.13 1197.27 3909 1196.07 3910.05 1195.07 3911.41 1193.8 3913.1 1192.84 3914.92 1192.33 3916.75 1191.78 3918.71 1191.67 3920.57 1192.15 3922.43 1192.64 3924.19 1193.8 3925 1195.66 3924.36 1193.73 3922.63 1192.29 3920.74 1191.61Z" fill="#333333" fill-rule="evenodd" fill-opacity="1"></path><path d="M3912.29 1207.39C3914.22 1208.08 3916.35 1208.15 3918.35 1207.77 3920.38 1207.36 3922.3 1206.5 3924 1205.2 3925.55 1204 3926.87 1202.35 3927.55 1200.36L3929 1200.36C3929 1200.36 3926.43 1196 3926.43 1196L3924 1200.43 3925.31 1200.43C3924.84 1201.73 3924 1202.93 3922.95 1203.93 3921.59 1205.2 3919.9 1206.16 3918.08 1206.67 3916.29 1207.22 3914.29 1207.33 3912.43 1206.85 3910.6 1206.36 3908.81 1205.2 3908 1203.34 3908.64 1205.27 3910.37 1206.71 3912.26 1207.39Z" fill="#333333" fill-rule="evenodd" fill-opacity="1"></path><path d="M3624.96 1349 3620 1349 3620 1180.33C3620 1179.99 3620.77 1179 3622.5 1179 3624.23 1179 3625 1180.02 3625 1180.33L3625 1349Z" fill="#E3C88A" fill-rule="evenodd" fill-opacity="0.45098"></path><path d="M3744.5 1179.5 3744.5 1182.5" stroke="#E3C88A" stroke-width="2.65364" stroke-linecap="round" stroke-linejoin="miter" stroke-miterlimit="8" stroke-opacity="1" fill="none" fill-rule="evenodd"></path><path d="M3744.5 1187.5 3744.5 1364.5" stroke="#E3C88A" stroke-width="2.65364" stroke-linecap="round" stroke-linejoin="miter" stroke-miterlimit="8" stroke-dasharray="-2.65364 2.65364 0.451119 5.7584" stroke-opacity="1" fill="none" fill-rule="evenodd"></path><path d="M3744.5 1367.5 3744.5 1369.5" stroke="#E3C88A" stroke-width="2.65364" stroke-linecap="round" stroke-linejoin="miter" stroke-miterlimit="8" stroke-opacity="1" fill="none" fill-rule="evenodd"></path><path d="M3801.5 1179.5 3801.5 1182.5" stroke="#E3C88A" stroke-width="2.65364" stroke-linecap="round" stroke-linejoin="miter" stroke-miterlimit="8" stroke-opacity="1" fill="none" fill-rule="evenodd"></path><path d="M3801.5 1187.5 3801.5 1364.5" stroke="#E3C88A" stroke-width="2.65364" stroke-linecap="round" stroke-linejoin="miter" stroke-miterlimit="8" stroke-dasharray="-2.65364 2.65364 0.451119 5.7584" stroke-opacity="1" fill="none" fill-rule="evenodd"></path><path d="M3801.5 1367.5 3801.5 1369.5" stroke="#E3C88A" stroke-width="2.65364" stroke-linecap="round" stroke-linejoin="miter" stroke-miterlimit="8" stroke-opacity="1" fill="none" fill-rule="evenodd"></path><path d="M3686.5 1179.5 3686.5 1182.5" stroke="#E3C88A" stroke-width="2.65364" stroke-linecap="round" stroke-linejoin="miter" stroke-miterlimit="8" stroke-opacity="1" fill="none" fill-rule="evenodd"></path><path d="M3686.5 1187.5 3686.5 1364.5" stroke="#E3C88A" stroke-width="2.65364" stroke-linecap="round" stroke-linejoin="miter" stroke-miterlimit="8" stroke-dasharray="-2.65364 2.65364 0.451119 5.7584" stroke-opacity="1" fill="none" fill-rule="evenodd"></path><path d="M3686.5 1367.5 3686.5 1369.5" stroke="#E3C88A" stroke-width="2.65364" stroke-linecap="round" stroke-linejoin="miter" stroke-miterlimit="8" stroke-opacity="1" fill="none" fill-rule="evenodd"></path><path d="M3859.5 1179.5 3859.5 1182.5" stroke="#E3C88A" stroke-width="2.65364" stroke-linecap="round" stroke-linejoin="miter" stroke-miterlimit="8" stroke-opacity="1" fill="none" fill-rule="evenodd"></path><path d="M3859.5 1187.5 3859.5 1364.5" stroke="#E3C88A" stroke-width="2.65364" stroke-linecap="round" stroke-linejoin="miter" stroke-miterlimit="8" stroke-dasharray="-2.65364 2.65364 0.451119 5.7584" stroke-opacity="1" fill="none" fill-rule="evenodd"></path><path d="M3859.5 1367.5 3859.5 1369.5" stroke="#E3C88A" stroke-width="2.65364" stroke-linecap="round" stroke-linejoin="miter" stroke-miterlimit="8" stroke-opacity="1" fill="none" fill-rule="evenodd"></path><path d="M3690 1206 3854 1206 3854 1226 3690 1226Z" fill="#FDFDFD" fill-rule="evenodd" fill-opacity="1"></path><text fill="#333333" fill-opacity="1" font-family="Arial,Arial_MSFontService,sans-serif" font-style="normal" font-variant="normal" font-weight="400" font-stretch="normal" font-size="20" text-anchor="start" direction="ltr" writing-mode="lr-tb" text-decoration="none" transform="matrix(1 0 0 1 3697.89 1222)">System Demos</text><path d="M3628.5 1181.5C3628.5 1184.81 3625.81 1187.5 3622.5 1187.5 3619.19 1187.5 3616.5 1184.81 3616.5 1181.5 3616.5 1178.19 3619.19 1175.5 3622.5 1175.5 3625.81 1175.5 3628.5 1178.19 3628.5 1181.5Z" stroke="#D4AB4E" stroke-width="0.98668" stroke-linecap="butt" stroke-linejoin="miter" stroke-miterlimit="8" stroke-opacity="1" fill="#E3C88A" fill-rule="evenodd" fill-opacity="1"></path><path d="M3640.5 1199.91 3623.09 1217.5 3605.5 1200.09 3622.88 1182.5 3640.5 1199.91Z" stroke="#D4AB4E" stroke-width="0.98668" stroke-linecap="butt" stroke-linejoin="miter" stroke-miterlimit="8" stroke-opacity="1" fill="#E3C88A" fill-rule="evenodd" fill-opacity="1"></path><path d="M3616 1204 3616 1195C3616 1195 3618 1195 3618 1195L3618 1204C3618 1204 3616 1204 3616 1204Z" fill="#333333" fill-rule="evenodd" fill-opacity="1"></path><path d="M3620.91 1203.94 3620.63 1203.55C3620.29 1203.85 3619.91 1204 3619.44 1204 3618.58 1204 3618 1203.58 3618 1202.83 3618 1202.13 3618.44 1201.62 3619.06 1201.23 3618.75 1200.84 3618.51 1200.57 3618.48 1200.08 3618.48 1199.33 3618.92 1199 3619.78 1199 3620.5 1199 3621.11 1199.3 3621.11 1199.99 3621.11 1200.57 3620.63 1201.05 3620.15 1201.38L3620.84 1202.37C3621.04 1202.13 3621.18 1201.86 3621.28 1201.59L3621.97 1201.86C3621.8 1202.25 3621.56 1202.61 3621.25 1202.98 3621.52 1203.31 3621.76 1203.64 3622 1203.97L3620.94 1203.97ZM3619.44 1201.83C3619.09 1202.07 3618.92 1202.4 3618.92 1202.8 3618.92 1203.13 3619.2 1203.4 3619.57 1203.4 3619.85 1203.4 3620.09 1203.25 3620.26 1203.07L3619.44 1201.86ZM3619.78 1199.57C3619.44 1199.57 3619.3 1199.72 3619.3 1200.02 3619.3 1200.33 3619.5 1200.63 3619.68 1200.84 3619.91 1200.66 3620.26 1200.33 3620.26 1200.02 3620.26 1199.72 3620.12 1199.6 3619.78 1199.6Z" fill="#333333" fill-rule="evenodd" fill-opacity="1"></path><path d="M3626.35 1204 3625.9 1201.76 3624.04 1201.76C3624.04 1201.76 3623.61 1204 3623.61 1204L3622 1204C3622 1204 3623.86 1195 3623.86 1195L3626.04 1195C3626.04 1195 3628 1203.97 3628 1203.97L3626.35 1203.97ZM3624.95 1196.17C3624.7 1197.66 3624.21 1200.52 3624.21 1200.52L3625.75 1200.52C3625.75 1200.52 3625.16 1197.66 3624.95 1196.17Z" fill="#333333" fill-rule="evenodd" fill-opacity="1"></path><path d="M3626.5 1191.61C3624.48 1190.92 3622.25 1190.85 3620.16 1191.23 3618.03 1191.64 3616.01 1192.5 3614.24 1193.8 3612.65 1195 3611.23 1196.65 3610.52 1198.64L3609 1198.64C3609 1198.64 3611.69 1203 3611.69 1203L3614.24 1198.57 3612.86 1198.57C3613.32 1197.27 3614.24 1196.07 3615.34 1195.07 3616.76 1193.8 3618.53 1192.84 3620.44 1192.33 3622.36 1191.78 3624.41 1191.67 3626.36 1192.15 3628.31 1192.64 3630.15 1193.8 3631 1195.66 3630.33 1193.73 3628.52 1192.29 3626.54 1191.61Z" fill="#333333" fill-rule="evenodd" fill-opacity="1"></path><path d="M3618.29 1207.39C3620.22 1208.08 3622.35 1208.15 3624.35 1207.77 3626.38 1207.36 3628.3 1206.5 3630 1205.2 3631.55 1204 3632.87 1202.35 3633.55 1200.36L3635 1200.36C3635 1200.36 3632.43 1196 3632.43 1196L3630 1200.43 3631.31 1200.43C3630.84 1201.73 3630 1202.93 3628.95 1203.93 3627.59 1205.2 3625.9 1206.16 3624.08 1206.67 3622.29 1207.22 3620.29 1207.33 3618.43 1206.85 3616.6 1206.36 3614.81 1205.2 3614 1203.34 3614.64 1205.27 3616.37 1206.71 3618.26 1207.39Z" fill="#333333" fill-rule="evenodd" fill-opacity="1"></path><g clip-path="url(#clip18)"><g clip-path="url(#clip19)"><g clip-path="url(#clip20)"><path d="M4.94318 4.94318 81.7272 4.94318 81.7272 101.83 4.94318 101.83Z" stroke="#053947" stroke-width="9.8913" stroke-linecap="butt" stroke-linejoin="miter" stroke-miterlimit="10" stroke-opacity="1" fill="none" fill-rule="nonzero" transform="matrix(1 0 0 1.0273 1869 992.156)"></path><path d="M5.93182 6.92045 81.3977 6.92045 81.3977 20.7614 5.93182 20.7614Z" fill="#053947" fill-rule="nonzero" fill-opacity="1" transform="matrix(1 0 0 1.0273 1869 992.156)"></path><path d="M18.125 34.6023 56.0227 34.6023 56.0227 43.5 18.125 43.5Z" stroke="#FFFFFF" stroke-width="1.04565" stroke-linecap="butt" stroke-linejoin="miter" stroke-miterlimit="10" stroke-opacity="1" fill="#053947" fill-rule="nonzero" fill-opacity="1" transform="matrix(1 0 0 1.0273 1869 992.156)"></path><path d="M61.2954 34.6023 69.2045 34.6023 69.2045 43.5 61.2954 43.5Z" stroke="#FFFFFF" stroke-width="1.04565" stroke-linecap="butt" stroke-linejoin="miter" stroke-miterlimit="10" stroke-opacity="1" fill="#053947" fill-rule="nonzero" fill-opacity="1" transform="matrix(1 0 0 1.0273 1869 992.156)"></path><path d="M18.125 54.7045 56.0227 54.7045 56.0227 63.6023 18.125 63.6023Z" stroke="#FFFFFF" stroke-width="1.04565" stroke-linecap="butt" stroke-linejoin="miter" stroke-miterlimit="10" stroke-opacity="1" fill="#053947" fill-rule="nonzero" fill-opacity="1" transform="matrix(1 0 0 1.0273 1869 992.156)"></path><path d="M61.2954 54.7045 69.2045 54.7045 69.2045 63.6023 61.2954 63.6023Z" stroke="#FFFFFF" stroke-width="1.04565" stroke-linecap="butt" stroke-linejoin="miter" stroke-miterlimit="10" stroke-opacity="1" fill="#053947" fill-rule="nonzero" fill-opacity="1" transform="matrix(1 0 0 1.0273 1869 992.156)"></path><path d="M18.125 75.1363 56.0227 75.1363 56.0227 84.0341 18.125 84.0341Z" stroke="#FFFFFF" stroke-width="1.04565" stroke-linecap="butt" stroke-linejoin="miter" stroke-miterlimit="10" stroke-opacity="1" fill="#053947" fill-rule="nonzero" fill-opacity="1" transform="matrix(1 0 0 1.0273 1869 992.156)"></path><path d="M61.2954 75.1363 69.2045 75.1363 69.2045 84.0341 61.2954 84.0341Z" stroke="#FFFFFF" stroke-width="1.04565" stroke-linecap="butt" stroke-linejoin="miter" stroke-miterlimit="10" stroke-opacity="1" fill="#053947" fill-rule="nonzero" fill-opacity="1" transform="matrix(1 0 0 1.0273 1869 992.156)"></path></g></g></g><path d="M1408 1640 1537 1640 1537 1689 1408 1689Z" fill="#336887" fill-rule="evenodd" fill-opacity="1"></path><path d="M1408 1584 1537 1584 1537 1633 1408 1633Z" fill="#336887" fill-rule="evenodd" fill-opacity="1"></path><path d="M1408 1527 1537 1527 1537 1576 1408 1576Z" fill="#A62423" fill-rule="evenodd" fill-opacity="1"></path><path d="M1408 1471 1537 1471 1537 1520 1408 1520Z" fill="#336887" fill-rule="evenodd" fill-opacity="1"></path><path d="M1547.34 1455 1547.34 1699.71 1397.66 1699.71 1397.66 1455 1383 1455 1383 1714 1562 1714 1562 1455Z" fill="#CACAC9" fill-rule="evenodd" fill-opacity="1"></path><path d="M1551.68 1703 1395.32 1703C1380.92 1711.54 1372 1722.48 1372 1734.44 1372 1761.78 1417.26 1784 1473.5 1784 1529.74 1784 1575 1761.78 1575 1734.44 1575 1722.48 1566.08 1711.54 1551.68 1703Z" fill="#CACAC9" fill-rule="evenodd" fill-opacity="1"></path><text fill="#333333" fill-opacity="1" font-family="Arial,Arial_MSFontService,sans-serif" font-style="normal" font-variant="normal" font-weight="700" font-stretch="normal" font-size="48" text-anchor="start" direction="ltr" writing-mode="lr-tb" text-decoration="none" transform="matrix(1 0 0 1 1411.14 1752)">NFRs</text><path d="M2244 1639 2373 1639 2373 1688 2244 1688Z" fill="#336887" fill-rule="evenodd" fill-opacity="1"></path><path d="M2244 1583 2373 1583 2373 1632 2244 1632Z" fill="#336887" fill-rule="evenodd" fill-opacity="1"></path><path d="M2244 1526 2373 1526 2373 1575 2244 1575Z" fill="#A62423" fill-rule="evenodd" fill-opacity="1"></path><path d="M2244 1470 2373 1470 2373 1519 2244 1519Z" fill="#336887" fill-rule="evenodd" fill-opacity="1"></path><path d="M2383.34 1453 2383.34 1697.71 2233.66 1697.71 2233.66 1453 2219 1453 2219 1712 2398 1712 2398 1453Z" fill="#CACAC9" fill-rule="evenodd" fill-opacity="1"></path><path d="M2388.8 1700 2233.2 1700C2218.87 1708.54 2210 1719.48 2210 1731.44 2210 1758.78 2255.04 1781 2311 1781 2366.96 1781 2412 1758.78 2412 1731.44 2412 1719.48 2403.13 1708.54 2388.8 1700Z" fill="#CACAC9" fill-rule="evenodd" fill-opacity="1"></path><text fill="#333333" fill-opacity="1" font-family="Arial,Arial_MSFontService,sans-serif" font-style="normal" font-variant="normal" font-weight="700" font-stretch="normal" font-size="48" text-anchor="start" direction="ltr" writing-mode="lr-tb" text-decoration="none" transform="matrix(1 0 0 1 2252.03 1753)">NFRs</text><path d="M568.425 748 436.233 748C424.589 748 415 738.392 415 726.725L415 233.275C415 221.608 424.589 212 436.233 212L568.767 212C580.411 212 590 221.608 590 233.275L590 726.725C589.658 738.392 580.069 748 568.425 748Z" stroke="#CACAC9" stroke-width="10.2724" stroke-linecap="butt" stroke-linejoin="miter" stroke-miterlimit="8" stroke-opacity="1" fill="#FFFFFF" fill-rule="evenodd" fill-opacity="1"></path><path d="M895.5 237.5C895.5 243.023 890.799 247.5 885 247.5 879.201 247.5 874.5 243.023 874.5 237.5 874.5 231.977 879.201 227.5 885 227.5 890.799 227.5 895.5 231.977 895.5 237.5Z" stroke="url(#stroke21)" stroke-width="2.62261" stroke-linecap="butt" stroke-linejoin="miter" stroke-miterlimit="8" fill="#E3C88A" fill-rule="evenodd" fill-opacity="1"></path><path d="M743.5 237.5C743.5 243.023 738.575 247.5 732.5 247.5 726.425 247.5 721.5 243.023 721.5 237.5 721.5 231.977 726.425 227.5 732.5 227.5 738.575 227.5 743.5 231.977 743.5 237.5Z" stroke="url(#stroke22)" stroke-width="2.62261" stroke-linecap="butt" stroke-linejoin="miter" stroke-miterlimit="8" fill="#E3C88A" fill-rule="evenodd" fill-opacity="1"></path><path d="M590.5 236C590.5 241.799 585.799 246.5 580 246.5 574.201 246.5 569.5 241.799 569.5 236 569.5 230.201 574.201 225.5 580 225.5 585.799 225.5 590.5 230.201 590.5 236Z" stroke="url(#stroke23)" stroke-width="2.62261" stroke-linecap="butt" stroke-linejoin="miter" stroke-miterlimit="8" fill="#E3C88A" fill-rule="evenodd" fill-opacity="1"></path><path d="M437.5 236C437.5 241.799 432.575 246.5 426.5 246.5 420.425 246.5 415.5 241.799 415.5 236 415.5 230.201 420.425 225.5 426.5 225.5 432.575 225.5 437.5 230.201 437.5 236Z" stroke="url(#stroke24)" stroke-width="2.62261" stroke-linecap="butt" stroke-linejoin="miter" stroke-miterlimit="8" fill="#E3C88A" fill-rule="evenodd" fill-opacity="1"></path><path d="M1053.5 236C1053.5 244.56 1046.34 251.5 1037.5 251.5 1028.66 251.5 1021.5 244.56 1021.5 236 1021.5 227.44 1028.66 220.5 1037.5 220.5 1046.34 220.5 1053.5 227.44 1053.5 236Z" stroke="url(#stroke25)" stroke-width="2.62261" stroke-linecap="butt" stroke-linejoin="miter" stroke-miterlimit="8" fill="#E3C88A" fill-rule="evenodd" fill-opacity="1"></path><path d="M348.61 642C327.932 642 312 624.166 312 601.188 312 598.101 312.339 595.357 313.017 592.957 313.017 592.614 315.051 580.953 326.915 567.921L345.221 547 352 552.83 333.695 574.094C323.526 585.069 321.831 594.672 321.831 594.672 321.492 597.072 321.153 599.13 321.153 601.531 321.153 619.365 333.356 633.426 348.61 633.426L348.61 642Z" fill="#C9C9C8" fill-rule="evenodd" fill-opacity="1"></path><path d="M320.381 498 311 498C311 494.924 311.348 492.19 312.042 489.798 312.042 489.456 314.127 477.836 326.288 464.848L345.051 444 352 449.81 333.585 470.658C323.161 481.595 321.424 491.165 321.424 491.165 320.729 493.899 320.381 495.949 320.381 498Z" fill="#C9C9C8" fill-rule="evenodd" fill-opacity="1"></path><path d="M351.78 553 345 547.12 363.305 525.673C373.475 514.604 375.17 504.918 375.17 504.918 375.509 502.497 375.848 500.421 375.848 498L385 498C385 501.113 384.661 503.881 383.983 506.302 383.983 506.648 381.95 518.409 370.085 531.554L351.78 553Z" fill="#C9C9C8" fill-rule="evenodd" fill-opacity="1"></path><path d="M351.78 450 345 444.13 363.305 422.72C373.475 411.669 375.17 402 375.17 402 375.509 399.583 375.848 397.511 375.848 395.094 375.848 377.137 363.644 362.978 348.39 362.978L348.39 354C369.068 354 385 371.957 385 395.094 385 398.201 384.661 400.964 383.983 403.382 383.983 403.727 381.95 415.468 370.085 428.59L351.78 450Z" fill="#C9C9C8" fill-rule="evenodd" fill-opacity="1"></path><path d="M386 498 376.698 498C376.698 495.949 376.353 493.899 376.008 491.507 376.008 491.507 374.286 481.937 363.95 471L345 449.81 351.891 444 370.496 465.19C382.555 478.177 384.622 489.798 384.622 490.14 385.311 492.532 386 495.266 386 498Z" fill="#C9C9C8" fill-rule="evenodd" fill-opacity="1"></path><path d="M344.941 450 326.79 428.59C315.025 415.468 313.008 403.727 313.008 403.382 312.673 400.964 312 398.201 312 395.094 312 371.957 328.135 354 348.303 354L348.303 362.978C332.84 362.978 321.076 377.137 321.076 395.094 321.076 397.166 321.412 399.238 321.748 401.655 321.748 401.655 323.429 411.324 333.513 422.374L352 443.785 344.941 450Z" fill="#C9C9C8" fill-rule="evenodd" fill-opacity="1"></path><path d="M344.941 553 326.79 531.554C315.025 518.409 313.008 506.648 313.008 506.302 312.673 503.881 312 501.113 312 498L321.076 498C321.076 500.076 321.412 502.151 321.748 504.573 321.748 504.573 323.429 514.258 333.513 525.327L352 546.774 344.941 553Z" fill="#C9C9C8" fill-rule="evenodd" fill-opacity="1"></path><path d="M347.82 642 347.82 633.083C363.795 633.083 375.95 619.022 375.95 601.188 375.95 599.13 375.603 597.072 375.255 594.672 375.255 594.672 373.519 585.069 363.101 574.094L344 552.83 350.946 547 369.699 568.263C381.854 581.296 383.937 592.957 383.937 593.3 384.285 595.7 384.979 598.444 384.979 601.531 385.674 624.166 369.004 642 347.82 642Z" fill="#C9C9C8" fill-rule="evenodd" fill-opacity="1"></path><text fill="#333333" fill-opacity="1" font-family="Arial,Arial_MSFontService,sans-serif" font-style="normal" font-variant="normal" font-weight="700" font-stretch="normal" font-size="32" text-anchor="start" direction="ltr" writing-mode="lr-tb" text-decoration="none" transform="matrix(1 0 0 1 326.377 407)">CD<tspan fill="#333333" fill-opacity="1" font-family="Arial,Arial_MSFontService,sans-serif" font-style="normal" font-variant="normal" font-weight="700" font-stretch="normal" font-size="32" text-anchor="start" direction="ltr" writing-mode="lr-tb" text-decoration="none" x="6.08609" y="106">CI</tspan><tspan fill="#333333" fill-opacity="1" font-family="Arial,Arial_MSFontService,sans-serif" font-style="normal" font-variant="normal" font-weight="700" font-stretch="normal" font-size="32" text-anchor="start" direction="ltr" writing-mode="lr-tb" text-decoration="none" x="0.758972" y="206">CE</tspan></text><path d="M321.803 374.286 312 364 315.38 388 336 376Z" fill="#C8D47B" fill-rule="evenodd" fill-opacity="1"></path><path d="M371.075 419.507 380 431 379.656 407 357 416.465Z" fill="#C8D47B" fill-rule="evenodd" fill-opacity="1"></path><path d="M319.079 585.582 307 577 314.461 600 334 584.896Z" fill="#C8D47B" fill-rule="evenodd" fill-opacity="1"></path><path d="M372.667 627.686 381 639 381 615 359 624.257Z" fill="#C8D47B" fill-rule="evenodd" fill-opacity="1"></path><path d="M316.075 485.686 325 497 324.656 473 302 482.6Z" fill="#C8D47B" fill-rule="evenodd" fill-opacity="1"></path><path d="M377.809 516.522 370.706 504 368 528 391 521.739Z" fill="#C8D47B" fill-rule="evenodd" fill-opacity="1"></path><path d="M503.526 642C482.331 642 466 624.166 466 601.188 466 598.101 466.348 595.357 467.042 592.957 467.042 592.614 469.127 580.953 481.288 567.921L500.051 547 507 552.83 488.238 574.094C477.814 585.069 476.076 594.672 476.076 594.672 475.729 597.072 475.381 599.13 475.381 601.531 475.381 619.365 487.89 633.426 503.526 633.426L503.526 642Z" fill="#C9C9C8" fill-rule="evenodd" fill-opacity="1"></path><path d="M475.381 498 466 498C466 494.924 466.348 492.19 467.042 489.798 467.042 489.456 469.127 477.836 481.288 464.848L500.051 444 507 449.81 488.238 471C477.814 481.937 476.076 491.507 476.076 491.507 475.729 493.899 475.381 495.949 475.381 498Z" fill="#C9C9C8" fill-rule="evenodd" fill-opacity="1"></path><path d="M506.78 553 500 547.12 518.305 525.673C528.475 514.604 530.17 504.918 530.17 504.918 530.509 502.497 530.848 500.421 530.848 498L540 498C540 501.113 539.661 503.881 538.983 506.302 538.983 506.648 536.95 518.409 525.085 531.554L506.78 553Z" fill="#C9C9C8" fill-rule="evenodd" fill-opacity="1"></path><path d="M506.78 450 500 444.13 518.305 422.72C528.475 411.669 530.17 402 530.17 402 530.509 399.583 530.848 397.511 530.848 395.094 530.848 377.137 518.644 362.978 503.39 362.978L503.39 354C524.068 354 540 371.957 540 395.094 540 398.201 539.661 400.964 538.983 403.382 538.983 403.727 536.95 415.468 525.085 428.59L506.78 450Z" fill="#C9C9C8" fill-rule="evenodd" fill-opacity="1"></path><path d="M540 498 530.925 498C530.925 495.949 530.588 493.899 530.252 491.507 530.252 491.507 528.571 481.937 518.488 471L500 449.81 506.723 444 524.874 465.19C536.639 478.177 538.656 489.798 538.656 490.14 539.664 492.532 540 495.266 540 498Z" fill="#C9C9C8" fill-rule="evenodd" fill-opacity="1"></path><path d="M499.765 450 481.16 428.59C469.101 415.468 467.034 403.727 467.034 403.382 466.689 400.964 466 398.201 466 395.094 466 371.957 482.538 354 503.21 354L503.21 362.978C487.361 362.978 475.302 377.137 475.302 395.094 475.302 397.166 475.647 399.238 475.992 401.655 475.992 401.655 477.714 411.324 488.051 422.374L507 443.785 499.765 450Z" fill="#C9C9C8" fill-rule="evenodd" fill-opacity="1"></path><path d="M499.765 553 481.16 531.554C469.101 518.409 467.034 506.648 467.034 506.302 466.689 503.881 466 501.113 466 498L475.302 498C475.302 500.076 475.647 502.151 475.992 504.573 475.992 504.573 477.714 514.258 488.051 525.327L507 546.774 499.765 553Z" fill="#C9C9C8" fill-rule="evenodd" fill-opacity="1"></path><path d="M503.729 642 503.729 633.083C519.32 633.083 531.182 619.022 531.182 601.188 531.182 599.13 530.844 597.072 530.504 594.672 530.504 594.672 528.81 585.069 518.642 574.094L500 552.83 506.779 547 525.082 568.263C536.945 581.296 538.978 592.957 538.978 593.3 539.317 595.7 539.995 598.444 539.995 601.531 540.334 624.166 524.065 642 503.729 642Z" fill="#C9C9C8" fill-rule="evenodd" fill-opacity="1"></path><path d="M656.61 642C635.932 642 620 624.166 620 601.188 620 598.101 620.339 595.357 621.017 592.957 621.017 592.614 623.051 580.953 634.915 567.921L653.221 547 660 552.83 641.695 574.094C631.526 585.069 629.831 594.672 629.831 594.672 629.492 597.072 629.153 599.13 629.153 601.531 629.153 619.365 641.356 633.426 656.61 633.426L656.61 642Z" fill="#C9C9C8" fill-rule="evenodd" fill-opacity="1"></path><path d="M629.153 498 620 498C620 494.924 620.339 492.19 621.017 489.798 621.017 489.456 623.051 477.836 634.915 464.848L653.221 444 660 449.81 641.695 471C631.526 481.937 629.831 491.507 629.831 491.507 629.153 493.899 629.153 495.949 629.153 498Z" fill="#C9C9C8" fill-rule="evenodd" fill-opacity="1"></path><path d="M659.949 553 653 547.12 671.763 525.673C682.187 514.604 683.924 504.918 683.924 504.918 684.271 502.497 684.619 500.421 684.619 498L694 498C694 501.113 693.653 503.881 692.958 506.302 692.958 506.648 690.873 518.409 678.712 531.554L659.949 553Z" fill="#C9C9C8" fill-rule="evenodd" fill-opacity="1"></path><path d="M659.949 450 653 444.13 671.763 422.72C682.187 411.669 683.924 402 683.924 402 684.271 399.583 684.619 397.511 684.619 395.094 684.619 377.137 672.11 362.978 656.475 362.978L656.475 354C677.67 354 694 371.957 694 395.094 694 398.201 693.653 400.964 692.958 403.382 692.958 403.727 690.873 415.468 678.712 428.59L659.949 450Z" fill="#C9C9C8" fill-rule="evenodd" fill-opacity="1"></path><path d="M694 498 684.698 498C684.698 495.949 684.353 493.899 684.008 491.507 684.008 491.507 682.286 481.937 671.95 471L653 449.81 659.891 444 678.496 465.19C690.555 478.177 692.622 489.798 692.622 490.14 693.311 492.532 694 495.266 694 498Z" fill="#C9C9C8" fill-rule="evenodd" fill-opacity="1"></path><path d="M653.765 450 635.16 428.59C623.101 415.468 621.034 403.727 621.034 403.382 620.689 400.964 620 398.201 620 395.094 620 371.957 636.538 354 657.21 354L657.21 362.978C641.361 362.978 629.302 377.137 629.302 395.094 629.302 397.166 629.647 399.238 629.992 401.655 629.992 401.655 631.714 411.324 642.051 422.374L661 443.785 653.765 450Z" fill="#C9C9C8" fill-rule="evenodd" fill-opacity="1"></path><path d="M653.765 553 635.16 531.554C623.101 518.409 621.034 506.648 621.034 506.302 620.689 503.881 620 501.113 620 498L629.302 498C629.302 500.076 629.647 502.151 629.992 504.573 629.992 504.573 631.714 514.258 642.051 525.327L661 546.774 653.765 553Z" fill="#C9C9C8" fill-rule="evenodd" fill-opacity="1"></path><path d="M656.727 642 656.727 633.083C672.312 633.083 684.171 619.022 684.171 601.188 684.171 599.13 683.832 597.072 683.493 594.672 683.493 594.672 681.799 585.069 671.635 574.094L653 552.83 659.776 547 678.072 568.263C689.931 581.296 691.963 592.957 691.963 593.3 692.302 595.7 692.98 598.444 692.98 601.531 693.657 624.166 677.394 642 656.727 642Z" fill="#C9C9C8" fill-rule="evenodd" fill-opacity="1"></path><path d="M810.526 642C789.331 642 773 624.166 773 601.188 773 598.101 773.348 595.357 774.042 592.957 774.042 592.614 776.127 580.953 788.288 567.921L807.051 547 814 552.83 795.238 574.094C784.814 585.069 783.076 594.672 783.076 594.672 782.729 597.072 782.382 599.13 782.382 601.531 782.382 619.365 794.89 633.426 810.526 633.426L810.526 642Z" fill="#C9C9C8" fill-rule="evenodd" fill-opacity="1"></path><path d="M782.153 498 773 498C773 494.924 773.339 492.19 774.017 489.798 774.017 489.456 776.051 477.836 787.915 464.848L806.221 444 813 449.81 794.695 471C784.526 481.937 782.831 491.507 782.831 491.507 782.492 493.899 782.153 495.949 782.153 498Z" fill="#C9C9C8" fill-rule="evenodd" fill-opacity="1"></path><path d="M812.949 553 806 547.12 824.763 525.673C835.187 514.604 836.924 504.918 836.924 504.918 837.271 502.497 837.619 500.421 837.619 498L847 498C847 501.113 846.653 503.881 845.958 506.302 845.958 506.648 843.873 518.409 831.712 531.554L812.949 553Z" fill="#C9C9C8" fill-rule="evenodd" fill-opacity="1"></path><path d="M812.949 450 806 444.13 824.763 422.72C835.187 411.669 836.924 402 836.924 402 837.271 399.583 837.619 397.511 837.619 395.094 837.619 377.137 825.11 362.978 809.475 362.978L809.475 354C830.67 354 847 371.957 847 395.094 847 398.201 846.653 400.964 845.958 403.382 845.958 403.727 843.873 415.468 831.712 428.59L812.949 450Z" fill="#C9C9C8" fill-rule="evenodd" fill-opacity="1"></path><path d="M847 498 837.698 498C837.698 495.949 837.353 493.899 837.008 491.507 837.008 491.507 835.286 481.937 824.95 471L806 449.81 812.891 444 831.496 465.19C843.555 478.177 845.622 489.798 845.622 490.14 846.311 492.532 847 495.266 847 498Z" fill="#C9C9C8" fill-rule="evenodd" fill-opacity="1"></path><path d="M806.765 450 788.16 428.59C776.101 415.468 774.034 403.727 774.034 403.382 773.689 400.964 773 398.201 773 395.094 773 371.957 789.538 354 810.21 354L810.21 362.978C794.361 362.978 782.303 377.137 782.303 395.094 782.303 397.166 782.647 399.238 782.992 401.655 782.992 401.655 784.714 411.324 795.051 422.374L814 443.785 806.765 450Z" fill="#C9C9C8" fill-rule="evenodd" fill-opacity="1"></path><path d="M806.765 553 788.16 531.554C776.101 518.409 774.034 506.648 774.034 506.302 773.689 503.881 773 501.113 773 498L782.303 498C782.303 500.076 782.647 502.151 782.992 504.573 782.992 504.573 784.714 514.258 795.051 525.327L814 546.774 806.765 553Z" fill="#C9C9C8" fill-rule="evenodd" fill-opacity="1"></path><path d="M809.727 642 809.727 633.083C825.312 633.083 837.171 619.022 837.171 601.188 837.171 599.13 836.832 597.072 836.493 594.672 836.493 594.672 834.799 585.069 824.635 574.094L806 552.83 812.776 547 831.072 568.263C842.93 581.296 844.963 592.957 844.963 593.3 845.302 595.7 845.98 598.444 845.98 601.531 846.657 624.166 830.394 642 809.727 642Z" fill="#C9C9C8" fill-rule="evenodd" fill-opacity="1"></path><path d="M1044 737 1031 737C1031 319.837 1031 235.856 1031 232.428 1031 231.4 1033.17 229 1037.5 229 1041.83 229 1044 231.742 1044 232.428 1044 233.113 1044 737 1044 737Z" fill="#E3C88A" fill-rule="evenodd" fill-opacity="0.45098"></path><path d="M1061 632.001 1061 396.06 1013 382 1013 621.712Z" fill="#7C7C7C" fill-rule="evenodd" fill-opacity="1"></path><text fill="#FFFFFF" fill-opacity="1" font-family="Arial,Arial_MSFontService,sans-serif" font-style="italic" font-variant="normal" font-weight="700" font-stretch="normal" font-size="32" text-anchor="start" direction="ltr" writing-mode="lr-tb" text-decoration="none" transform="matrix(-1.83697e-16 -1 1 -1.83697e-16 1045.73 588)">PI Planning<tspan fill="#333333" fill-opacity="1" font-family="Arial,Arial_MSFontService,sans-serif" font-style="normal" font-variant="normal" font-weight="700" font-stretch="normal" font-size="41" text-anchor="start" direction="ltr" writing-mode="lr-tb" text-decoration="none" x="-33" y="-83.3124">IP Iteration</tspan></text><path d="M1084.5 286 1038.17 332.5 991.5 286.344 1037.83 239.5Z" stroke="url(#stroke26)" stroke-width="2.62261" stroke-linecap="butt" stroke-linejoin="miter" stroke-miterlimit="8" fill="#E3C88A" fill-rule="evenodd" fill-opacity="1"></path><path d="M1021 299 1021 275 1026 275 1026 299 1021 299Z" fill="#333333" fill-rule="evenodd" fill-opacity="1"></path><path d="M1034.59 298.637 1033.9 297.546C1032.86 298.637 1031.83 299 1030.79 299 1028.38 299 1027 297.546 1027 295.364 1027 293.182 1028.03 291.364 1029.76 290.273 1029.07 289.182 1028.38 288.091 1028.38 286.636 1028.38 284.091 1029.76 283 1031.83 283 1033.9 283 1035.28 284.091 1035.28 286.273 1035.28 288.091 1033.9 289.545 1032.52 290.637L1034.24 293.909C1034.59 293.182 1035.28 292.455 1035.28 291.364L1037 292.091C1036.66 293.182 1035.97 294.636 1034.93 295.728 1035.62 296.818 1036.31 297.909 1037 299L1034.59 298.637ZM1030.79 292.091C1029.76 292.818 1029.41 293.909 1029.41 295 1029.41 296.091 1030.1 296.818 1031.14 296.818 1031.83 296.818 1032.52 296.455 1032.86 295.728L1030.79 292.091ZM1031.48 284.818C1030.45 284.818 1030.1 285.182 1030.1 286.273 1030.1 287 1030.79 288.091 1031.14 288.818 1031.83 288.091 1032.52 287 1032.52 286.273 1032.86 285.546 1032.52 284.818 1031.48 284.818Z" fill="#333333" fill-rule="evenodd" fill-opacity="1"></path><path d="M1048.67 298 1047.67 292.333 1043 292.333 1042 298 1038 298 1042.67 275 1048 275 1053 298 1048.67 298ZM1045.33 278C1044.67 281.667 1043.33 289 1043.33 289L1047.33 289C1047.33 289 1045.67 282 1045.33 278Z" fill="#333333" fill-rule="evenodd" fill-opacity="1"></path><path d="M1048.12 263.585C1043.03 261.894 1037.26 261.556 1032.17 262.57 1026.74 263.585 1021.65 265.952 1017.24 269.333 1013.16 272.376 1009.43 276.771 1007.73 281.843L1004 281.843 1010.79 293 1017.24 281.504 1013.84 281.504C1015.2 278.123 1017.24 275.081 1020.29 272.376 1023.69 268.995 1028.44 266.628 1033.19 265.275 1037.94 263.923 1043.37 263.585 1048.12 264.937 1052.87 266.29 1057.62 269.333 1060 274.066 1057.62 269.333 1053.21 265.614 1048.12 263.585Z" fill="#333333" fill-rule="evenodd" fill-opacity="1"></path><path d="M1026.88 307.415C1031.97 309.106 1037.74 309.444 1042.83 308.429 1048.26 307.415 1053.35 305.048 1057.76 301.667 1061.84 298.625 1065.57 294.229 1067.27 289.158L1071 289.158 1064.21 278 1057.76 289.496 1061.16 289.496C1059.8 292.877 1057.76 295.92 1054.71 298.625 1051.32 302.006 1046.56 304.372 1041.81 305.725 1037.06 307.077 1031.63 307.415 1026.88 306.063 1022.13 304.711 1017.38 301.667 1015 296.934 1017.04 301.667 1021.79 305.725 1026.88 307.415Z" fill="#333333" fill-rule="evenodd" fill-opacity="1"></path><path d="M262 685 250 685C250 267.348 250 239.207 250 235.432 250 234.402 252 232 256 232 260 232 262 234.745 262 235.432 262 236.118 262 685 262 685Z" fill="#E3C88A" fill-rule="evenodd" fill-opacity="0.45098"></path><path d="M579.5 231.5 579.5 237.5" stroke="#E3C88A" stroke-width="7.04823" stroke-linecap="round" stroke-linejoin="miter" stroke-miterlimit="8" stroke-opacity="1" fill="none" fill-rule="evenodd"></path><path d="M579.5 252.5 579.5 724.5" stroke="#E3C88A" stroke-width="7.04823" stroke-linecap="round" stroke-linejoin="miter" stroke-miterlimit="8" stroke-dasharray="14.6631 28.7596" stroke-opacity="1" fill="none" fill-rule="evenodd"></path><path d="M579.5 731.5 579.5 738.5" stroke="#E3C88A" stroke-width="7.04823" stroke-linecap="round" stroke-linejoin="miter" stroke-miterlimit="8" stroke-opacity="1" fill="none" fill-rule="evenodd"></path><path d="M426.5 231.5 426.5 237.5" stroke="#E3C88A" stroke-width="7.04823" stroke-linecap="round" stroke-linejoin="miter" stroke-miterlimit="8" stroke-opacity="1" fill="none" fill-rule="evenodd"></path><path d="M426.5 252.5 426.5 724.5" stroke="#E3C88A" stroke-width="7.04823" stroke-linecap="round" stroke-linejoin="miter" stroke-miterlimit="8" stroke-dasharray="14.6631 28.7596" stroke-opacity="1" fill="none" fill-rule="evenodd"></path><path d="M426.5 731.5 426.5 738.5" stroke="#E3C88A" stroke-width="7.04823" stroke-linecap="round" stroke-linejoin="miter" stroke-miterlimit="8" stroke-opacity="1" fill="none" fill-rule="evenodd"></path><path d="M279 632.001 279 396.06 232 382 232 621.712Z" fill="#7C7C7C" fill-rule="evenodd" fill-opacity="1"></path><text fill="#FFFFFF" fill-opacity="1" font-family="Arial,Arial_MSFontService,sans-serif" font-style="italic" font-variant="normal" font-weight="700" font-stretch="normal" font-size="32" text-anchor="start" direction="ltr" writing-mode="lr-tb" text-decoration="none" transform="matrix(-1.83697e-16 -1 1 -1.83697e-16 264.261 595)">PI Planning</text><path d="M452 525 556 525 556 568 452 568Z" fill="#336887" fill-rule="evenodd" fill-opacity="1"></path><path d="M732.5 231.5 732.5 237.5" stroke="#E3C88A" stroke-width="7.04823" stroke-linecap="round" stroke-linejoin="miter" stroke-miterlimit="8" stroke-opacity="1" fill="none" fill-rule="evenodd"></path><path d="M732.5 252.5 732.5 724.5" stroke="#E3C88A" stroke-width="7.04823" stroke-linecap="round" stroke-linejoin="miter" stroke-miterlimit="8" stroke-dasharray="14.6631 28.7596" stroke-opacity="1" fill="none" fill-rule="evenodd"></path><path d="M732.5 731.5 732.5 738.5" stroke="#E3C88A" stroke-width="7.04823" stroke-linecap="round" stroke-linejoin="miter" stroke-miterlimit="8" stroke-opacity="1" fill="none" fill-rule="evenodd"></path><text fill="#FFFFFF" fill-opacity="1" font-family="Arial,Arial_MSFontService,sans-serif" font-style="normal" font-variant="normal" font-weight="700" font-stretch="normal" font-size="28" text-anchor="start" direction="ltr" writing-mode="lr-tb" text-decoration="none" transform="matrix(1 0 0 1 468.753 554)">Story</text><path d="M885.5 231.5 885.5 237.5" stroke="#E3C88A" stroke-width="7.04823" stroke-linecap="round" stroke-linejoin="miter" stroke-miterlimit="8" stroke-opacity="1" fill="none" fill-rule="evenodd"></path><path d="M885.5 252.5 885.5 724.5" stroke="#E3C88A" stroke-width="7.04823" stroke-linecap="round" stroke-linejoin="miter" stroke-miterlimit="8" stroke-dasharray="14.6631 28.7596" stroke-opacity="1" fill="none" fill-rule="evenodd"></path><path d="M885.5 731.5 885.5 738.5" stroke="#E3C88A" stroke-width="7.04823" stroke-linecap="round" stroke-linejoin="miter" stroke-miterlimit="8" stroke-opacity="1" fill="none" fill-rule="evenodd"></path><path d="M750 549 870 549 870 593 750 593Z" fill="#A62423" fill-rule="evenodd" fill-opacity="1"></path><text fill="#FFFFFF" fill-opacity="1" font-family="Arial,Arial_MSFontService,sans-serif" font-style="normal" font-variant="normal" font-weight="700" font-stretch="normal" font-size="28" text-anchor="start" direction="ltr" writing-mode="lr-tb" text-decoration="none" transform="matrix(1 0 0 1 760.915 581)">Enabler</text><path d="M652 452 799 452 799 503 652 503Z" fill="#336887" fill-rule="evenodd" fill-opacity="1"></path><text fill="#FFFFFF" fill-opacity="1" font-family="Arial,Arial_MSFontService,sans-serif" font-style="normal" font-variant="normal" font-weight="700" font-stretch="normal" font-size="32" text-anchor="start" direction="ltr" writing-mode="lr-tb" text-decoration="none" transform="matrix(1 0 0 1 669.8 489)">Feature</text><path d="M272.5 236C272.5 244.56 265.113 251.5 256 251.5 246.887 251.5 239.5 244.56 239.5 236 239.5 227.44 246.887 220.5 256 220.5 265.113 220.5 272.5 227.44 272.5 236Z" stroke="url(#stroke27)" stroke-width="2.62261" stroke-linecap="butt" stroke-linejoin="miter" stroke-miterlimit="8" fill="#E3C88A" fill-rule="evenodd" fill-opacity="1"></path><path d="M302.5 286 256.172 332.5 209.5 286.344 255.828 239.5Z" stroke="url(#stroke28)" stroke-width="2.62261" stroke-linecap="butt" stroke-linejoin="miter" stroke-miterlimit="8" fill="#E3C88A" fill-rule="evenodd" fill-opacity="1"></path><path d="M239 299 239 275 243 275 243 299 239 299Z" fill="#333333" fill-rule="evenodd" fill-opacity="1"></path><path d="M252.586 298.637 251.897 297.546C250.862 298.637 249.828 299 248.793 299 246.379 299 245 297.546 245 295.364 245 293.182 246.034 291.364 247.759 290.273 247.069 289.182 246.379 288.091 246.379 286.636 246.379 284.091 247.759 283 249.828 283 251.897 283 253.276 284.091 253.276 286.273 253.276 288.091 251.897 289.545 250.517 290.637L252.242 293.909C252.586 293.182 253.276 292.455 253.276 291.364L255 292.091C254.655 293.182 253.966 294.636 252.931 295.728 253.621 296.818 254.31 297.909 255 299L252.586 298.637ZM248.793 292.091C247.759 292.818 247.414 293.909 247.414 295 247.414 296.091 248.103 296.818 249.138 296.818 249.828 296.818 250.517 296.455 250.862 295.728L248.793 292.091ZM249.483 284.818C248.448 284.818 248.103 285.182 248.103 286.273 248.103 287 248.793 288.091 249.138 288.818 249.828 288.091 250.517 287 250.517 286.273 250.862 285.546 250.517 284.818 249.483 284.818Z" fill="#333333" fill-rule="evenodd" fill-opacity="1"></path><path d="M267.378 298 266.311 292.333 261.333 292.333 260.267 298 256 298 260.978 275 266.667 275 272 298 267.378 298ZM263.822 278C263.111 281.667 261.689 289 261.689 289L265.956 289C265.956 289 264.178 282 263.822 278Z" fill="#333333" fill-rule="evenodd" fill-opacity="1"></path><path d="M266.461 263.618C261.37 261.892 255.6 261.547 250.509 262.583 245.079 263.618 239.988 266.035 235.576 269.488 231.164 272.94 227.77 277.083 225.734 282.607L222 282.607 228.788 294 235.237 282.262 231.843 282.262C233.2 278.809 235.237 275.702 238.291 272.94 241.685 269.488 246.437 267.071 251.188 265.69 255.94 264.309 261.37 263.964 266.121 265.345 270.873 266.726 275.625 269.833 278 274.666 275.964 269.488 271.552 265.69 266.461 263.618Z" fill="#333333" fill-rule="evenodd" fill-opacity="1"></path><path d="M244.879 307.415C249.97 309.106 255.74 309.444 260.831 308.429 266.261 307.415 271.352 305.048 275.764 301.667 279.837 298.625 283.57 294.229 285.267 289.158L289 289.158 282.212 278 275.764 289.496 279.158 289.496C277.8 292.877 275.764 295.92 272.709 298.625 269.315 302.006 264.564 304.372 259.812 305.725 255.061 307.077 249.631 307.415 244.879 306.063 240.128 304.711 235.376 301.667 233 296.934 235.037 301.667 239.788 305.725 244.879 307.415Z" fill="#333333" fill-rule="evenodd" fill-opacity="1"></path><path d="M509 364 656 364 656 414 509 414Z" fill="#A62423" fill-rule="evenodd" fill-opacity="1"></path><text fill="#FFFFFF" fill-opacity="1" font-family="Arial,Arial_MSFontService,sans-serif" font-style="normal" font-variant="normal" font-weight="700" font-stretch="normal" font-size="32" text-anchor="start" direction="ltr" writing-mode="lr-tb" text-decoration="none" transform="matrix(1 0 0 1 523.838 399)">Enabler</text><rect x="646" y="271" width="278" height="70.0001" fill="#E4E4E4" fill-opacity="1"></rect><text fill="#333333" fill-opacity="1" font-family="Arial,Arial_MSFontService,sans-serif" font-style="normal" font-variant="normal" font-weight="700" font-stretch="normal" font-size="41" text-anchor="start" direction="ltr" writing-mode="lr-tb" text-decoration="none" transform="matrix(1 0 0 1 662.638 305)">System Demos<tspan fill="#FFFFFF" fill-opacity="1" font-family="Arial,Arial_MSFontService,sans-serif" font-style="normal" font-variant="normal" font-weight="700" font-stretch="normal" font-size="32" text-anchor="start" direction="ltr" writing-mode="lr-tb" text-decoration="none" x="773.32" y="1201">Story</tspan><tspan fill="#FFFFFF" fill-opacity="1" font-family="Arial,Arial_MSFontService,sans-serif" font-style="normal" font-variant="normal" font-weight="700" font-stretch="normal" font-size="32" text-anchor="start" direction="ltr" writing-mode="lr-tb" text-decoration="none" x="773.443" y="1256">Story</tspan><tspan fill="#FFFFFF" fill-opacity="1" font-family="Arial,Arial_MSFontService,sans-serif" font-style="normal" font-variant="normal" font-weight="700" font-stretch="normal" font-size="32" text-anchor="start" direction="ltr" writing-mode="lr-tb" text-decoration="none" x="773.565" y="1313">Story</tspan><tspan fill="#FFFFFF" fill-opacity="1" font-family="Arial,Arial_MSFontService,sans-serif" font-style="normal" font-variant="normal" font-weight="700" font-stretch="normal" font-size="32" text-anchor="start" direction="ltr" writing-mode="lr-tb" text-decoration="none" x="773.687" y="1370">Story</tspan><tspan fill="#FFFFFF" fill-opacity="1" font-family="Arial,Arial_MSFontService,sans-serif" font-style="normal" font-variant="normal" font-weight="700" font-stretch="normal" font-size="32" text-anchor="start" direction="ltr" writing-mode="lr-tb" text-decoration="none" x="1607.58" y="1197">Story</tspan><tspan fill="#FFFFFF" fill-opacity="1" font-family="Arial,Arial_MSFontService,sans-serif" font-style="normal" font-variant="normal" font-weight="700" font-stretch="normal" font-size="32" text-anchor="start" direction="ltr" writing-mode="lr-tb" text-decoration="none" x="1606.55" y="1257">Story</tspan><tspan fill="#FFFFFF" fill-opacity="1" font-family="Arial,Arial_MSFontService,sans-serif" font-style="normal" font-variant="normal" font-weight="700" font-stretch="normal" font-size="32" text-anchor="start" direction="ltr" writing-mode="lr-tb" text-decoration="none" x="1605.53" y="1309">Story</tspan><tspan fill="#FFFFFF" fill-opacity="1" font-family="Arial,Arial_MSFontService,sans-serif" font-style="normal" font-variant="normal" font-weight="700" font-stretch="normal" font-size="32" text-anchor="start" direction="ltr" writing-mode="lr-tb" text-decoration="none" x="1604.51" y="1366">Story</tspan></text></g></svg> 